<?xml version="1.0" encoding="UTF-8" standalone="no"?>
<!-- Created with Inkscape (http://www.inkscape.org/) -->

<svg
   width="113.59254mm"
   height="59.883682mm"
   viewBox="0 0 113.59256 59.883681"
   version="1.1"
   id="svg5"
   inkscape:version="1.4.2 (ebf0e940d0, 2025-05-08)"
   sodipodi:docname="architecture_simple.svg"
   xml:space="preserve"
   xmlns:inkscape="http://www.inkscape.org/namespaces/inkscape"
   xmlns:sodipodi="http://sodipodi.sourceforge.net/DTD/sodipodi-0.dtd"
   xmlns="http://www.w3.org/2000/svg"
   xmlns:svg="http://www.w3.org/2000/svg"><sodipodi:namedview
     id="namedview7"
     pagecolor="#ffffff"
     bordercolor="#666666"
     borderopacity="1.0"
     inkscape:pageshadow="2"
     inkscape:pageopacity="0.0"
     inkscape:pagecheckerboard="0"
     inkscape:document-units="mm"
     showgrid="false"
     showguides="true"
     inkscape:guide-bbox="true"
     fit-margin-top="0"
     fit-margin-left="0"
     fit-margin-right="0"
     fit-margin-bottom="0"
     inkscape:zoom="5.2312432"
     inkscape:cx="240.66937"
     inkscape:cy="94.050302"
     inkscape:window-width="1920"
     inkscape:window-height="1200"
     inkscape:window-x="0"
     inkscape:window-y="0"
     inkscape:window-maximized="1"
     inkscape:current-layer="layer1"
     inkscape:showpageshadow="2"
     inkscape:deskcolor="#d1d1d1" /><defs
     id="defs2"><filter
       id="shadowFilter-g2da756bcedc_0_556.1"
       filterUnits="userSpaceOnUse"><feGaussianBlur
         in="SourceAlpha"
         stdDeviation="1.7777777"
         result="blur"
         id="feGaussianBlur833" /><feComponentTransfer
         in="blur"
         color-interpolation-filters="sRGB"
         id="feComponentTransfer843"><feFuncR
           type="linear"
           slope="0"
           intercept="0.0"
           id="feFuncR835" /><feFuncG
           type="linear"
           slope="0"
           intercept="0.0"
           id="feFuncG837" /><feFuncB
           type="linear"
           slope="0"
           intercept="0.0"
           id="feFuncB839" /><feFuncA
           type="linear"
           slope="0.4"
           intercept="0"
           id="feFuncA841" /></feComponentTransfer></filter><linearGradient
       id="g2da756bcedc_0_556.2"
       gradientUnits="userSpaceOnUse"
       gradientTransform="scale(24.7352,-24.7352)"
       spreadMethod="pad"
       x1="-0.9047007"
       y1="-0.90455753"
       x2="16.585695"
       y2="16.585901"><stop
         offset="0.0"
         stop-color="#5561a6"
         id="stop848" /><stop
         offset="1.0"
         stop-color="#26235c"
         id="stop850" /></linearGradient><linearGradient
       id="g2da756bcedc_0_556.3"
       gradientUnits="userSpaceOnUse"
       gradientTransform="matrix(8.1978147,0,0,8.1978147,-40.265748,50.267358)"
       spreadMethod="pad"
       x1="0"
       y1="17.428234"
       x2="30.983868"
       y2="17.428234"><stop
         offset="0.0"
         stop-color="#5561a6"
         id="stop858" /><stop
         offset="1.0"
         stop-color="#26235c"
         id="stop860" /></linearGradient><defs
       id="defs846"><filter
         id="filter1164"
         filterUnits="userSpaceOnUse"><feGaussianBlur
           in="SourceAlpha"
           stdDeviation="1.7777777"
           result="blur"
           id="feGaussianBlur1152" /><feComponentTransfer
           in="blur"
           color-interpolation-filters="sRGB"
           id="feComponentTransfer1162"><feFuncR
             type="linear"
             slope="0"
             intercept="0.0"
             id="feFuncR1154" /><feFuncG
             type="linear"
             slope="0"
             intercept="0.0"
             id="feFuncG1156" /><feFuncB
             type="linear"
             slope="0"
             intercept="0.0"
             id="feFuncB1158" /><feFuncA
             type="linear"
             slope="0.4"
             intercept="0"
             id="feFuncA1160" /></feComponentTransfer></filter></defs><defs
       id="defs863"><linearGradient
         id="linearGradient1180"
         gradientUnits="userSpaceOnUse"
         gradientTransform="scale(30.983867)"
         spreadMethod="pad"
         x1="0"
         y1="17.428234"
         x2="30.983868"
         y2="17.428234"><stop
           offset="0.0"
           stop-color="#5561a6"
           id="stop1176" /><stop
           offset="1.0"
           stop-color="#26235c"
           id="stop1178" /></linearGradient></defs><marker
       style="overflow:visible"
       id="Dot"
       refX="0"
       refY="0"
       orient="auto"
       inkscape:stockid="Dot"
       markerWidth="1"
       markerHeight="1"
       viewBox="0 0 1 1"
       inkscape:isstock="true"
       inkscape:collect="always"
       preserveAspectRatio="xMidYMid"><path
         transform="scale(0.5)"
         style="fill:context-stroke;fill-rule:evenodd;stroke:none"
         d="M 5,0 C 5,2.76 2.76,5 0,5 -2.76,5 -5,2.76 -5,0 c 0,-2.76 2.3,-5 5,-5 2.76,0 5,2.24 5,5 z"
         sodipodi:nodetypes="sssss"
         id="path17" /></marker></defs><g
     inkscape:label="Layer 1"
     inkscape:groupmode="layer"
     id="layer1"
     transform="translate(-70.365193,-124.59412)"><path
       stroke="#dcdfed"
       stroke-width="1.05833"
       stroke-linejoin="round"
       stroke-linecap="butt"
       stroke-dasharray="16, 12"
       d="m 96.236894,125.12329 h 87.191676 v 30.77916 H 96.236894 Z"
       fill-rule="evenodd"
       id="path888"
       style="fill:none;stroke-miterlimit:10"
       sodipodi:nodetypes="ccccc" /><g
       id="g17"
       transform="matrix(0.79450516,0,0,0.79450516,34.568524,31.042281)"><path
         fill="#dcdfed"
         d="m 161.88616,123.36282 c 0.0148,-1.23207 1.1878,-2.85978 2.85978,-2.85978 h 12.51378 c 0.75846,0 1.48585,0.30129 2.02216,0.83761 0.53632,0.53631 0.83761,1.26371 0.83761,2.02217 v 4.77844 c 0,1.57941 -1.28036,2.85977 -2.85977,2.85977 h -12.51378 c -1.57942,0 -2.85978,-1.28036 -2.85978,-2.85977 z"
         fill-rule="evenodd"
         id="path1050"
         style="stroke:none;stroke-width:0.264583;stroke-linecap:square;stroke-miterlimit:10"
         sodipodi:nodetypes="cssssssssc" /><path
         stroke="#1c1a45"
         stroke-width="0.264583"
         stroke-linejoin="round"
         stroke-linecap="butt"
         d="m 161.88616,123.36282 c -0.004,-1.08575 1.32247,-2.85978 2.85978,-2.85978 h 12.51378 c 0.75846,0 1.48585,0.30129 2.02216,0.83761 0.53632,0.53631 0.83761,1.26371 0.83761,2.02217 v 4.77844 c 0,1.57941 -1.28036,2.85977 -2.85977,2.85977 h -12.51378 c -1.57942,0 -2.85978,-1.28036 -2.85978,-2.85977 0,-1.59281 0.006,-3.18564 0,-4.77844 z"
         fill-rule="evenodd"
         id="path1052"
         style="fill:none;stroke-miterlimit:10"
         sodipodi:nodetypes="ssssssssss" /><text
         xml:space="preserve"
         style="font-style:normal;font-weight:normal;font-size:3.4477px;line-height:1.25;font-family:sans-serif;letter-spacing:0px;word-spacing:0px;fill:#000000;fill-opacity:1;stroke:none;stroke-width:0.0861925"
         x="171.002"
         y="124.02019"
         id="text3534"><tspan
           sodipodi:role="line"
           id="tspan3532"
           style="text-align:center;text-anchor:middle;stroke-width:0.0861925"
           x="171.002"
           y="124.02019">htsget</tspan></text><text
         xml:space="preserve"
         style="font-style:normal;font-weight:normal;font-size:3.4477px;line-height:1.25;font-family:sans-serif;letter-spacing:0px;word-spacing:0px;fill:#000000;fill-opacity:1;stroke:none;stroke-width:0.0861925"
         x="170.99547"
         y="128.74782"
         id="text3840"><tspan
           sodipodi:role="line"
           id="tspan3838"
           style="text-align:center;text-anchor:middle;stroke-width:0.0861925"
           x="170.99547"
           y="128.74782">server</tspan></text></g><path
       fill="#000000"
       fill-opacity="0"
       d="m 103.51659,144.97815 c -3.29434,0 -4.941826,0.004 -6.588696,0.008 -1.64688,0.004 -3.29316,0.008 -6.58632,0.008"
       fill-rule="evenodd"
       id="path1066"
       style="stroke:none;stroke-width:0.264583;stroke-linecap:square;stroke-miterlimit:10" /><path
       stroke="#1c1a45"
       stroke-width="0.264583"
       stroke-linejoin="round"
       stroke-linecap="butt"
       d="m 101.92909,144.97867 -0.60019,1.9e-4 c -0.64345,5.3e-4 -1.2097,0.001 -1.724456,0.002 -1.02953,0.002 -1.85311,0.004 -2.67655,0.006 -0.82344,0.002 -1.64673,0.004 -2.6758,0.006 -0.51454,8e-4 -1.08052,0.001 -1.7237,0.002 l -0.59932,1.9e-4"
       fill-rule="evenodd"
       id="path1068"
       style="fill:none;stroke-miterlimit:10" /><path
       fill="#1c1a45"
       stroke="#1c1a45"
       stroke-width="0.264583"
       stroke-linecap="butt"
       d="m 101.92923,145.41569 1.20056,-0.43742 -1.20085,-0.43662 z"
       fill-rule="evenodd"
       id="path1070"
       style="stroke-miterlimit:10" /><path
       fill="#1c1a45"
       stroke="#1c1a45"
       stroke-width="0.264583"
       stroke-linecap="butt"
       d="m 91.928944,144.55728 -1.20057,0.43741 1.20085,0.43663 z"
       fill-rule="evenodd"
       id="path1072"
       style="stroke-miterlimit:10" /><path
       fill="#dcdfed"
       d="m 70.497484,139.89864 h 19.84166 v 10.15833 h -19.84166 z"
       fill-rule="evenodd"
       id="path1074"
       style="stroke:none;stroke-width:0.264583;stroke-linecap:square;stroke-miterlimit:10" /><path
       stroke="#1c1a45"
       stroke-width="0.264583"
       stroke-linejoin="round"
       stroke-linecap="butt"
       d="m 70.497484,139.89864 h 19.84166 v 10.15833 h -19.84166 z"
       fill-rule="evenodd"
       id="path1076"
       style="fill:none;stroke-miterlimit:10" /><path
       fill="#000000"
       fill-opacity="0"
       d="m 127.20827,144.97815 c 21.59582,0 43.19166,-8.075 43.19166,-16.15"
       fill-rule="evenodd"
       id="path1086"
       style="stroke:none;stroke-width:0.264583;stroke-linecap:square;stroke-miterlimit:10" /><path
       fill="#dcdfed"
       d="m 103.51659,142.43376 v 0 c 0.0312,-1.40854 1.27378,-2.85978 2.85977,-2.85978 h 17.97211 c 0.75847,0 1.48586,0.3013 2.02218,0.83761 0.53631,0.53631 0.83761,1.26371 0.83761,2.02217 v 8.26377 c 0,1.57942 -1.28038,2.85979 -2.85979,2.85979 h -17.97211 c -1.57941,0 -2.85977,-1.28037 -2.85977,-2.85979 z"
       fill-rule="evenodd"
       id="path1092"
       style="stroke:none;stroke-width:0.264583;stroke-linecap:square;stroke-miterlimit:10"
       sodipodi:nodetypes="csssssssssc" /><path
       stroke="#1c1a45"
       stroke-width="0.264583"
       stroke-linejoin="round"
       stroke-linecap="butt"
       d="m 103.51659,142.43376 v 0 c -0.0571,-1.67366 1.28033,-2.85978 2.85977,-2.85978 h 17.97211 c 0.75847,0 1.48586,0.3013 2.02218,0.83761 0.53631,0.53631 0.83761,1.26371 0.83761,2.02217 v 8.26377 c 0,1.57942 -1.28038,2.85979 -2.85979,2.85979 h -17.97211 c -1.57941,0 -2.85977,-1.28037 -2.85977,-2.85979 z"
       fill-rule="evenodd"
       id="path1094"
       style="fill:none;stroke-miterlimit:10"
       sodipodi:nodetypes="csssssssssc" /><text
       xml:space="preserve"
       style="font-style:normal;font-weight:normal;font-size:3.4477px;line-height:1.25;font-family:sans-serif;letter-spacing:0px;word-spacing:0px;fill:#000000;fill-opacity:1;stroke:none;stroke-width:0.0861925"
       x="115.34374"
       y="143.87744"
       id="text3880-3"><tspan
         sodipodi:role="line"
         id="tspan3878-6"
         style="text-align:center;text-anchor:middle;stroke-width:0.0861925"
         x="115.34374"
         y="143.87744">reverse</tspan></text><text
       xml:space="preserve"
       style="font-style:normal;font-weight:normal;font-size:3.4477px;line-height:1.25;font-family:sans-serif;letter-spacing:0px;word-spacing:0px;fill:#000000;fill-opacity:1;stroke:none;stroke-width:0.0861925"
       x="80.443558"
       y="146.35565"
       id="text3880-3-7"><tspan
         sodipodi:role="line"
         id="tspan3878-6-5"
         style="text-align:center;text-anchor:middle;stroke-width:0.0861925"
         x="80.443558"
         y="146.35565">client</tspan></text><text
       xml:space="preserve"
       style="font-style:normal;font-weight:normal;font-size:3.4477px;line-height:1.25;font-family:sans-serif;letter-spacing:0px;word-spacing:0px;fill:#000000;fill-opacity:1;stroke:none;stroke-width:0.0861925"
       x="79.154877"
       y="162.32761"
       id="text3880-3-7-0"><tspan
         sodipodi:role="line"
         id="tspan3878-6-5-6"
         style="text-align:center;text-anchor:middle;stroke-width:0.0861925"
         x="79.154877"
         y="162.32761">login</tspan></text><text
       xml:space="preserve"
       style="font-style:normal;font-weight:normal;font-size:3.4477px;line-height:1.25;font-family:sans-serif;letter-spacing:0px;word-spacing:0px;fill:#000000;fill-opacity:1;stroke:none;stroke-width:0.0861925"
       x="90.427269"
       y="162.2523"
       id="text3880-3-7-0-6"><tspan
         sodipodi:role="line"
         id="tspan3878-6-5-6-1"
         style="text-align:center;text-anchor:middle;stroke-width:0.0861925"
         x="90.427269"
         y="162.2523">jwt</tspan></text><text
       xml:space="preserve"
       style="font-style:normal;font-weight:normal;font-size:3.4477px;line-height:1.25;font-family:sans-serif;letter-spacing:0px;word-spacing:0px;fill:#000000;fill-opacity:1;stroke:none;stroke-width:0.0861925"
       x="147.96538"
       y="154.04129"
       id="text3880-3-7-0-6-7"><tspan
         sodipodi:role="line"
         id="tspan3878-6-5-6-1-9"
         style="text-align:center;text-anchor:middle;stroke-width:0.0861925"
         x="147.96538"
         y="154.04129">jwt</tspan></text><text
       xml:space="preserve"
       style="font-style:normal;font-weight:normal;font-size:3.4477px;line-height:1.25;font-family:sans-serif;letter-spacing:0px;word-spacing:0px;fill:#000000;fill-opacity:1;stroke:none;stroke-width:0.0861925"
       x="115.36884"
       y="148.69022"
       id="text2138"><tspan
         sodipodi:role="line"
         id="tspan2136"
         style="text-align:center;text-anchor:middle;stroke-width:0.0861925"
         x="115.36884"
         y="148.69022">proxy</tspan></text><path
       fill="#000000"
       fill-opacity="0"
       d="m 127.20827,144.97815 c 8.38748,0 16.77499,-7.63333 16.77499,-15.26667"
       fill-rule="evenodd"
       id="path1108"
       style="stroke:none;stroke-width:0.264583;stroke-linecap:square;stroke-miterlimit:10" /><path
       fill="#000000"
       fill-opacity="0"
       d="m 115.36242,128.96912 c 0,1.85749 0.004,2.7858 0.008,3.71496 0.004,0.92917 0.008,1.85919 0.008,3.71838"
       fill-rule="evenodd"
       id="path1116"
       style="stroke:none;stroke-width:0.264583;stroke-linecap:square;stroke-miterlimit:10" /><g
       id="g35"
       transform="translate(-0.60707727,12.21759)"><path
         fill="#dcdfed"
         d="m 79.14987,112.37823 h 18.233335 v 10.25833 H 79.14987 Z"
         fill-rule="evenodd"
         id="path1124"
         style="stroke:none;stroke-width:0.264583;stroke-linecap:square;stroke-miterlimit:10" /><text
         xml:space="preserve"
         style="font-style:normal;font-weight:normal;font-size:3.4477px;line-height:1.25;font-family:sans-serif;letter-spacing:0px;word-spacing:0px;fill:#000000;fill-opacity:1;stroke:none;stroke-width:0.0861925"
         x="87.413551"
         y="118.6669"
         id="text3880-9"><tspan
           sodipodi:role="line"
           id="tspan3878-1"
           style="text-align:center;text-anchor:middle;stroke-width:0.0861925"
           x="87.413551"
           y="118.6669">server</tspan></text></g><g
       id="g13"
       transform="matrix(0.79450516,0,0,0.79450516,34.861509,33.496807)"><g
         id="g11"
         transform="translate(55.009129,20.385736)"><g
           id="g18"><path
             fill="#dcdfed"
             d="m 106.85282,123.50344 c 0.0444,-1.45445 1.28037,-2.85978 2.85979,-2.85978 h 12.51377 c 0.75847,0 1.48586,0.3013 2.02217,0.83761 0.53632,0.53631 0.83761,1.26371 0.83761,2.02217 v 4.77845 c 0,1.57941 -1.28037,2.85977 -2.85978,2.85977 h -12.51377 c -1.57942,0 -2.85979,-1.28036 -2.85979,-2.85977 z"
             fill-rule="evenodd"
             id="path1058"
             style="stroke:none;stroke-width:0.264583;stroke-linecap:square;stroke-miterlimit:10"
             sodipodi:nodetypes="cssssssssc" /><path
             stroke="#1c1a45"
             stroke-width="0.264583"
             stroke-linejoin="round"
             stroke-linecap="butt"
             d="m 106.85282,123.50344 c 0,-1.621 1.28037,-2.85978 2.85979,-2.85978 h 12.51377 c 0.75847,0 1.48586,0.3013 2.02217,0.83761 0.53632,0.53631 0.83761,1.26371 0.83761,2.02217 v 4.77845 c 0,1.57941 -1.28037,2.85977 -2.85978,2.85977 h -12.51377 c -1.57942,0 -2.85979,-1.28036 -2.85979,-2.85977 z"
             fill-rule="evenodd"
             id="path1060"
             style="fill:none;stroke-miterlimit:10"
             sodipodi:nodetypes="ssssssssss" /><text
             xml:space="preserve"
             style="font-style:normal;font-weight:normal;font-size:3.4477px;line-height:1.25;font-family:sans-serif;letter-spacing:0px;word-spacing:0px;fill:#000000;fill-opacity:1;stroke:none;stroke-width:0.0861925"
             x="115.74244"
             y="127.16314"
             id="text4021"><tspan
               sodipodi:role="line"
               id="tspan4019"
               style="text-align:center;text-anchor:middle;stroke-width:0.0861925"
               x="115.74244"
               y="127.16314">kms</tspan></text></g></g></g><g
       id="g12"
       transform="matrix(0.7233132,0,0,0.7233132,34.061575,44.997898)"><path
         fill="#dcdfed"
         d="m 134.6115,116.07349 v 0 c 0,-1.74596 4.46657,-3.16134 9.97638,-3.16134 5.50982,0 9.97639,1.41538 9.97639,3.16134 v 12.64537 c 0,1.74596 -4.46657,3.16135 -9.97639,3.16135 -5.50981,0 -9.97638,-1.41539 -9.97638,-3.16135 z"
         fill-rule="evenodd"
         id="path1036"
         style="stroke:none;stroke-width:0.264583;stroke-linecap:square;stroke-miterlimit:10" /><path
         fill="#000000"
         fill-opacity="0"
         d="m 154.56429,116.07349 v 0 c 0,1.74596 -4.46657,3.16135 -9.9764,3.16135 -5.5098,0 -9.97637,-1.41539 -9.97637,-3.16135"
         fill-rule="evenodd"
         id="path1038"
         style="stroke:none;stroke-width:0.264583;stroke-linecap:square;stroke-miterlimit:10" /><path
         fill="#000000"
         fill-opacity="0"
         d="m 134.6115,116.07349 v 0 c 0,-1.74596 4.46657,-3.16134 9.97638,-3.16134 5.50982,0 9.97639,1.41538 9.97639,3.16134 v 12.64537 c 0,1.74596 -4.46657,3.16135 -9.97639,3.16135 -5.50981,0 -9.97638,-1.41539 -9.97638,-3.16135 z"
         fill-rule="evenodd"
         id="path1040"
         style="stroke:none;stroke-width:0.264583;stroke-linecap:square;stroke-miterlimit:10" /><path
         stroke="#1c1a45"
         stroke-width="0.264583"
         stroke-linejoin="round"
         stroke-linecap="butt"
         d="m 154.56429,116.07349 v 0 c 0,1.74596 -4.46657,3.16135 -9.9764,3.16135 -5.5098,0 -9.97637,-1.41539 -9.97637,-3.16135"
         fill-rule="evenodd"
         id="path1042"
         style="fill:none;stroke-miterlimit:10" /><path
         stroke="#1c1a45"
         stroke-width="0.264583"
         stroke-linejoin="round"
         stroke-linecap="butt"
         d="m 134.6115,116.07349 v 0 c 0,-1.74596 4.46657,-3.16134 9.97638,-3.16134 5.50982,0 9.97639,1.41538 9.97639,3.16134 v 12.64537 c 0,1.74596 -4.46657,3.16135 -9.97639,3.16135 -5.50981,0 -9.97638,-1.41539 -9.97638,-3.16135 z"
         fill-rule="evenodd"
         id="path1044"
         style="fill:none;stroke-miterlimit:10" /><text
         xml:space="preserve"
         style="font-style:normal;font-weight:normal;font-size:3.4477px;line-height:1.25;font-family:sans-serif;letter-spacing:0px;word-spacing:0px;fill:#000000;fill-opacity:1;stroke:none;stroke-width:0.0861925"
         x="144.57025"
         y="123.48668"
         id="text4021-3"><tspan
           sodipodi:role="line"
           id="tspan4019-5"
           style="text-align:center;text-anchor:middle;stroke-width:0.0861925"
           x="144.57025"
           y="123.48668">object</tspan></text><text
         xml:space="preserve"
         style="font-style:normal;font-weight:normal;font-size:3.4477px;line-height:1.25;font-family:sans-serif;letter-spacing:0px;word-spacing:0px;fill:#000000;fill-opacity:1;stroke:none;stroke-width:0.0861925"
         x="144.62244"
         y="126.90765"
         id="text4021-3-6"><tspan
           sodipodi:role="line"
           id="tspan4019-5-2"
           style="text-align:center;text-anchor:middle;stroke-width:0.0861925"
           x="144.62244"
           y="126.90765">storage</tspan></text><text
         xml:space="preserve"
         style="font-style:normal;font-weight:normal;font-size:3.4477px;line-height:1.25;font-family:sans-serif;letter-spacing:0px;word-spacing:0px;fill:#000000;fill-opacity:1;stroke:none;stroke-width:0.0861925"
         x="144.62244"
         y="130.61185"
         id="text3428"><tspan
           sodipodi:role="line"
           id="tspan3426"
           style="text-align:center;text-anchor:middle;stroke-width:0.0861925"
           x="144.62244"
           y="130.61185" /></text></g><path
       stroke="#dcdfed"
       stroke-width="1.05833"
       stroke-linejoin="round"
       stroke-linecap="butt"
       stroke-dasharray="16, 12"
       d="m 96.236894,159.51914 h 87.191676 v 24.42915 H 96.236894 Z"
       fill-rule="evenodd"
       id="path8"
       style="fill:none;stroke-miterlimit:10"
       sodipodi:nodetypes="ccccc" /><g
       id="g10"
       transform="translate(-17.702912,-17.601413)"><g
         id="g34"><path
           fill="#dcdfed"
           d="m 96.281475,191.82089 h 18.233335 v 10.25833 H 96.281475 Z"
           fill-rule="evenodd"
           id="path9"
           style="stroke:none;stroke-width:0.264583;stroke-linecap:square;stroke-miterlimit:10" /><text
           xml:space="preserve"
           style="font-style:normal;font-weight:normal;font-size:3.4477px;line-height:1.25;font-family:sans-serif;letter-spacing:0px;word-spacing:0px;fill:#000000;fill-opacity:1;stroke:none;stroke-width:0.0861925"
           x="105.07433"
           y="195.99292"
           id="text2"><tspan
             sodipodi:role="line"
             id="tspan2"
             style="text-align:center;text-anchor:middle;stroke-width:0.0861925"
             x="105.07433"
             y="195.99292">identity</tspan><tspan
             sodipodi:role="line"
             style="text-align:center;text-anchor:middle;stroke-width:0.0861925"
             x="105.07433"
             y="200.30255"
             id="tspan3">provider</tspan></text></g></g><path
       fill="#dcdfed"
       d="m 127.9416,167.05804 v 0 c 0,-1.57941 1.28037,-2.85978 2.85979,-2.85978 h 17.80544 c 0.75847,0 1.48586,0.3013 2.02217,0.83761 0.53632,0.53631 0.83761,1.26371 0.83761,2.02217 v 7.73461 c 0,1.57941 -1.28037,2.85977 -2.85978,2.85977 h -17.80544 c -1.57942,0 -2.85979,-1.28036 -2.85979,-2.85977 z"
       fill-rule="evenodd"
       id="path10"
       style="stroke:#1c1a45;stroke-width:0.264583;stroke-linecap:square;stroke-miterlimit:10;stroke-opacity:1"
       sodipodi:nodetypes="csssssssssc" /><text
       xml:space="preserve"
       style="font-style:normal;font-weight:normal;font-size:3.4477px;line-height:1.25;font-family:sans-serif;letter-spacing:0px;word-spacing:0px;fill:#000000;fill-opacity:1;stroke:none;stroke-width:0.0861925"
       x="140.0062"
       y="170.13805"
       id="text4"><tspan
         sodipodi:role="line"
         id="tspan4"
         style="text-align:center;text-anchor:middle;stroke-width:0.0861925"
         x="140.0062"
         y="170.13805">authentik</tspan><tspan
         sodipodi:role="line"
         style="text-align:center;text-anchor:middle;stroke-width:0.0861925"
         x="140.0062"
         y="174.44768"
         id="tspan8">server</tspan></text><path
       fill="#dcdfed"
       d="m 99.106534,167.15657 v 0 c 0,-1.57941 1.280386,-2.85978 2.859806,-2.85978 h 12.51377 c 0.75847,0 1.48586,0.3013 2.02217,0.83761 0.53632,0.53631 0.83761,1.26371 0.83761,2.02217 v 7.73461 c 0,1.57941 -1.28037,2.85977 -2.85978,2.85977 h -12.51377 c -1.57942,0 -2.859806,-1.28036 -2.859806,-2.85977 z"
       fill-rule="evenodd"
       id="path3-6"
       style="stroke:#1c1a45;stroke-width:0.264583;stroke-linecap:square;stroke-miterlimit:10;stroke-opacity:1"
       sodipodi:nodetypes="csssssssssc" /><text
       xml:space="preserve"
       style="font-style:normal;font-weight:normal;font-size:3.4477px;line-height:1.25;font-family:sans-serif;letter-spacing:0px;word-spacing:0px;fill:#000000;fill-opacity:1;stroke:none;stroke-width:0.0861925"
       x="108.52534"
       y="170.23659"
       id="text4-7"><tspan
         sodipodi:role="line"
         id="tspan4-5"
         style="text-align:center;text-anchor:middle;stroke-width:0.0861925"
         x="108.52534"
         y="170.23659">oidc </tspan><tspan
         sodipodi:role="line"
         style="text-align:center;text-anchor:middle;stroke-width:0.0861925"
         x="108.52534"
         y="174.54622"
         id="tspan5">provider</tspan></text><path
       fill="#dcdfed"
       d="m 162.60659,167.15657 v 0 c 0.0647,-1.55523 1.28037,-2.85978 2.85979,-2.85978 h 12.51377 c 0.75847,0 1.48586,0.3013 2.02217,0.83761 0.53632,0.53631 0.83761,1.26371 0.83761,2.02217 v 7.73461 c 0,1.57941 -1.28037,2.85977 -2.85978,2.85977 h -12.51377 c -1.57942,0 -2.85979,-1.28036 -2.85979,-2.85977 z"
       fill-rule="evenodd"
       id="path11"
       style="stroke:#1c1a45;stroke-width:0.264583;stroke-linecap:square;stroke-miterlimit:10;stroke-opacity:1"
       sodipodi:nodetypes="csssssssssc" /><text
       xml:space="preserve"
       style="font-style:normal;font-weight:normal;font-size:3.4477px;line-height:1.25;font-family:sans-serif;letter-spacing:0px;word-spacing:0px;fill:#000000;fill-opacity:1;stroke:none;stroke-width:0.0861925"
       x="172.02531"
       y="170.23659"
       id="text7"><tspan
         sodipodi:role="line"
         id="tspan6"
         style="text-align:center;text-anchor:middle;stroke-width:0.0861925"
         x="172.02531"
         y="170.23659">proxy </tspan><tspan
         sodipodi:role="line"
         style="text-align:center;text-anchor:middle;stroke-width:0.0861925"
         x="172.02531"
         y="174.54622"
         id="tspan7">provider</tspan></text><path
       fill="#000000"
       fill-opacity="0"
       d="m 130.10688,172.01736 c -3.29434,0 -4.94182,0.004 -6.58869,0.008 -1.64688,0.004 -3.29316,0.008 -6.58632,0.008"
       fill-rule="evenodd"
       id="path1066-5"
       style="stroke:none;stroke-width:0.264583;stroke-linecap:square;stroke-miterlimit:10" /><g
       id="g9"
       transform="translate(-0.07791027,-12.533313)"><path
         stroke="#1c1a45"
         stroke-width="0.264583"
         stroke-linejoin="round"
         stroke-linecap="butt"
         d="m 126.48061,185.30299 -0.60019,1.9e-4 c -0.64345,5.3e-4 -1.2097,0.001 -1.72446,0.002 -1.02953,0.002 0.26356,0.004 -0.55987,0.006 -0.82344,0.002 -1.64673,0.004 -2.6758,0.006 -0.51454,8e-4 -0.55135,0.001 -1.19453,0.002 l -0.59932,1.9e-4"
         fill-rule="evenodd"
         id="path1068-6"
         style="fill:none;stroke-miterlimit:10"
         sodipodi:nodetypes="ccssccc" /><path
         fill="#1c1a45"
         stroke="#1c1a45"
         stroke-width="0.264583"
         stroke-linecap="butt"
         d="m 126.48075,185.74001 1.20056,-0.43742 -1.20085,-0.43662 z"
         fill-rule="evenodd"
         id="path1070-2"
         style="stroke-miterlimit:10"
         sodipodi:nodetypes="cccc" /><path
         fill="#1c1a45"
         stroke="#1c1a45"
         stroke-width="0.264583"
         stroke-linecap="butt"
         d="m 119.1263,184.8816 -1.20056,0.43741 1.20085,0.43663 z"
         fill-rule="evenodd"
         id="path1072-9"
         style="stroke-miterlimit:10"
         sodipodi:nodetypes="cccc" /></g><path
       fill="#000000"
       fill-opacity="0"
       d="m 162.65063,170.69444 c -3.29434,0 -4.94182,0.004 -6.58869,0.008 -1.64688,0.004 -3.29316,0.008 -6.58632,0.008"
       fill-rule="evenodd"
       id="path1066-5-7"
       style="stroke:none;stroke-width:0.264583;stroke-linecap:square;stroke-miterlimit:10" /><g
       id="g8"
       transform="translate(-0.13357027,-11.210392)"><path
         stroke="#1c1a45"
         stroke-width="0.264583"
         stroke-linejoin="round"
         stroke-linecap="butt"
         d="m 161.14103,183.98007 -0.60019,1.9e-4 c -0.64345,5.3e-4 -1.2097,0.001 -1.72446,0.002 -1.02953,0.002 -1.85311,0.004 -2.67654,0.006 -0.82344,0.002 -1.64673,0.004 -2.6758,0.006 -0.51454,8e-4 1.03615,0.001 0.39297,0.002 l -0.59932,1.9e-4"
         fill-rule="evenodd"
         id="path1068-6-0"
         style="fill:none;stroke-miterlimit:10"
         sodipodi:nodetypes="ccssccc" /><path
         fill="#1c1a45"
         stroke="#1c1a45"
         stroke-width="0.264583"
         stroke-linecap="butt"
         d="m 161.14117,184.41709 1.20056,-0.43742 -1.20085,-0.43662 z"
         fill-rule="evenodd"
         id="path1070-2-9"
         style="stroke-miterlimit:10" /><path
         fill="#1c1a45"
         stroke="#1c1a45"
         stroke-width="0.264583"
         stroke-linecap="butt"
         d="m 153.25755,183.55868 -1.20056,0.43741 1.20085,0.43663 z"
         fill-rule="evenodd"
         id="path1072-9-3"
         style="stroke-miterlimit:10"
         sodipodi:nodetypes="cccc" /></g><g
       id="g16"
       transform="matrix(0.79450516,0,0,0.79450516,34.861509,24.139194)"><g
         id="g15"
         transform="translate(55.009129,20.385736)"><path
           fill="#dcdfed"
           d="m 106.85282,123.50344 c 0.0185,-2.15557 1.18543,-2.85978 2.85979,-2.85978 h 12.51377 c 0.75847,0 1.48586,0.3013 2.02217,0.83761 0.53632,0.53631 0.83761,1.26371 0.83761,2.02217 v 4.77845 c 0,1.57941 -1.28037,2.85977 -2.85978,2.85977 h -12.51377 c -1.57942,0 -2.85979,-1.28036 -2.85979,-2.85977 z"
           fill-rule="evenodd"
           id="path13"
           style="stroke:none;stroke-width:0.264583;stroke-linecap:square;stroke-miterlimit:10"
           sodipodi:nodetypes="cssssssssc" /><path
           stroke="#1c1a45"
           stroke-width="0.264583"
           stroke-linejoin="round"
           stroke-linecap="butt"
           d="m 106.85282,123.50344 c -0.11188,-1.71227 1.18543,-2.85978 2.85979,-2.85978 h 12.51377 c 0.75847,0 1.48586,0.3013 2.02217,0.83761 0.53632,0.53631 0.83761,1.26371 0.83761,2.02217 v 4.77845 c 0,1.57941 -1.28037,2.85977 -2.85978,2.85977 h -12.51377 c -1.57942,0 -2.85979,-1.28036 -2.85979,-2.85977 z"
           fill-rule="evenodd"
           id="path14"
           style="fill:none;stroke-miterlimit:10"
           sodipodi:nodetypes="cssssssssc" /><text
           xml:space="preserve"
           style="font-style:normal;font-weight:normal;font-size:3.4477px;line-height:1.25;font-family:sans-serif;letter-spacing:0px;word-spacing:0px;fill:#000000;fill-opacity:1;stroke:none;stroke-width:0.0861925"
           x="115.74244"
           y="124.17453"
           id="text14"><tspan
             sodipodi:role="line"
             id="tspan14"
             style="text-align:center;text-anchor:middle;stroke-width:0.0861925"
             x="115.74244"
             y="124.17453">modos</tspan></text><text
           xml:space="preserve"
           style="font-style:normal;font-weight:normal;font-size:3.4477px;line-height:1.25;font-family:sans-serif;letter-spacing:0px;word-spacing:0px;fill:#000000;fill-opacity:1;stroke:none;stroke-width:0.0861925"
           x="115.7214"
           y="128.74783"
           id="text15"><tspan
             sodipodi:role="line"
             id="tspan15"
             style="text-align:center;text-anchor:middle;stroke-width:0.0861925"
             x="115.7214"
             y="128.74783">server</tspan></text></g></g><path
       fill="#1c1a45"
       stroke="#1c1a45"
       stroke-width="0.264583"
       stroke-linecap="butt"
       d="m 161.73253,139.03276 1.27314,-0.10862 -1.04512,-0.73514 z"
       fill-rule="evenodd"
       id="path1070-7"
       style="stroke-miterlimit:10" /><path
       fill="#1c1a45"
       stroke="#1c1a45"
       stroke-width="0.264583"
       stroke-linecap="butt"
       d="m 162.39169,132.73909 0.43922,-1.19991 -1.10775,0.63688 z"
       fill-rule="evenodd"
       id="path1070-7-6"
       style="stroke-miterlimit:10" /><path
       fill="#1c1a45"
       stroke="#1c1a45"
       stroke-width="0.264583"
       stroke-linecap="butt"
       d="m 161.56162,131.23984 1.12154,-0.61223 -1.25271,-0.2519 z"
       fill-rule="evenodd"
       id="path1070-7-9"
       style="stroke-miterlimit:10" /><path
       fill="#1c1a45"
       stroke="#1c1a45"
       stroke-width="0.264583"
       stroke-linecap="butt"
       d="m 161.71939,149.48151 1.26429,-0.18511 -1.0875,-0.67085 z"
       fill-rule="evenodd"
       id="path1070-7-2"
       style="stroke-miterlimit:10" /><path
       fill="#1c1a45"
       stroke="#1c1a45"
       stroke-width="0.264583"
       stroke-linecap="butt"
       d="m 162.03897,141.63958 0.96354,-0.83921 -1.27755,0.0236 z"
       fill-rule="evenodd"
       id="path1070-7-3"
       style="stroke-miterlimit:10" /><path
       style="fill:none;stroke:#1c1a45;stroke-width:0.229;stroke-dasharray:none;stroke-dashoffset:0;stroke-opacity:1;marker-end:"
       d="m 148.23437,146.50511 14.47449,2.72588"
       id="path20"
       sodipodi:nodetypes="cc" /><path
       style="fill:none;stroke:#1c1a45;stroke-width:0.229;stroke-dasharray:none;stroke-dashoffset:0;stroke-opacity:1;marker-end:"
       d="m 148.13696,146.3103 14.61114,-5.42837"
       id="path21"
       sodipodi:nodetypes="cc" /><path
       style="fill:none;stroke:#1c1a45;stroke-width:0.229;stroke-dasharray:none;stroke-dashoffset:0;stroke-opacity:1;marker-end:"
       d="m 148.13696,146.11548 14.4078,-14.18739"
       id="path22"
       sodipodi:nodetypes="cc" /><path
       style="fill:none;stroke:#1c1a45;stroke-width:0.229;stroke-dasharray:none;stroke-dashoffset:0;stroke-opacity:1"
       d="m 91.095644,141.70383 c 7.61298,-3.67541 11.895956,-8.02975 39.780716,-7.13687"
       id="path24"
       sodipodi:nodetypes="cc" /><path
       fill="#1c1a45"
       stroke="#1c1a45"
       stroke-width="0.264583"
       stroke-linecap="butt"
       d="m 129.9403,135.02784 1.20054,-0.43748 -1.20089,-0.43655 z"
       fill-rule="evenodd"
       id="path1070-7-0"
       style="stroke-miterlimit:10" /><path
       fill="#1c1a45"
       stroke="#1c1a45"
       stroke-width="0.264583"
       stroke-linecap="butt"
       d="m 91.659395,140.94699 -0.89088,0.91598 1.271243,-0.12905 z"
       fill-rule="evenodd"
       id="path1070-7-0-3"
       style="stroke-miterlimit:10" /><path
       style="fill:none;stroke:#1c1a45;stroke-width:0.229;stroke-dasharray:none;stroke-dashoffset:0;stroke-opacity:1;marker-end:"
       d="m 146.04917,133.7838 16.25443,-3.14312"
       id="path25"
       sodipodi:nodetypes="cc" /><path
       style="fill:none;stroke:#1c1a45;stroke-width:0.229;stroke-dasharray:none;stroke-dashoffset:0;stroke-opacity:1;marker-end:"
       d="m 146.09783,134.68646 16.59107,4.12899"
       id="path26"
       sodipodi:nodetypes="cc" /><path
       style="fill:none;stroke:#1c1a45;stroke-width:0.229;stroke-dasharray:none;stroke-dashoffset:0;stroke-opacity:1"
       d="m 127.2405,146.40389 h 20.74541"
       id="path27"
       sodipodi:nodetypes="cc" /><path
       style="fill:none;stroke:#1c1a45;stroke-width:0.229;stroke-dasharray:none;stroke-dashoffset:0;stroke-opacity:1;marker-end:url(#Dot)"
       d="M 163.8074,164.57974 148.01028,146.46923"
       id="path28"
       sodipodi:nodetypes="cc" /><path
       style="fill:none;stroke:#1c1a45;stroke-width:0.370974;stroke-dasharray:none;stroke-dashoffset:0;stroke-opacity:1"
       d="m 147.84135,149.40698 -1.16627,1.36065 -0.68034,-0.58313"
       id="path29"
       sodipodi:nodetypes="ccc" /><g
       id="g31"
       transform="matrix(1.6199743,0,0,1.6199743,-88.632987,-83.473957)"><path
         style="fill:none;stroke:#1c1a45;stroke-width:0.229;stroke-dasharray:none;stroke-dashoffset:0;stroke-opacity:1"
         d="m 146.31702,144.77602 0.9906,-0.92642"
         id="path31"
         sodipodi:nodetypes="cc" /></g><path
       style="fill:none;stroke:#1c1a45;stroke-width:0.229;stroke-dasharray:none;stroke-dashoffset:0;stroke-opacity:1;marker-end:"
       d="m 99.073404,167.05673 c -0.19968,0.007 -3.57354,-0.002 -3.76554,0 -11.18833,0.1118 -9.47187,-8.61437 -9.60018,-16.16497"
       id="path32"
       sodipodi:nodetypes="csc" /><path
       style="fill:none;stroke:#1c1a45;stroke-width:0.229;stroke-dasharray:none;stroke-dashoffset:0;stroke-opacity:1;marker-start:"
       d="m 98.286174,169.07086 c -0.24722,-0.002 -3.10274,0.008 -3.33946,0 -12.21629,-0.4059 -10.59342,-8.80646 -10.83968,-18.30395"
       id="path33"
       sodipodi:nodetypes="csc" /><path
       fill="#1c1a45"
       stroke="#1c1a45"
       stroke-width="0.264583"
       stroke-linecap="butt"
       d="m 97.500564,169.50883 1.20054,-0.43748 -1.20089,-0.43655 z"
       fill-rule="evenodd"
       id="path1070-7-0-0"
       style="stroke-miterlimit:10" /><path
       fill="#1c1a45"
       stroke="#1c1a45"
       stroke-width="0.264583"
       stroke-linecap="butt"
       d="m 86.161485,151.67829 -0.43748,-1.20054 -0.43655,1.20089 z"
       fill-rule="evenodd"
       id="path1070-7-0-2"
       style="stroke-miterlimit:10" /><circle
       style="fill:#dcdfed;stroke-width:0.229;fill-opacity:1"
       id="path1"
       cx="148.15903"
       cy="146.35233"
       r="1.4945421" /><g
       id="g2"
       transform="matrix(1.6199743,0,0,-1.6199743,-88.632987,384.09213)"><path
         style="fill:none;stroke:#1c1a45;stroke-width:0.229;stroke-dasharray:none;stroke-dashoffset:0;stroke-opacity:1"
         d="m 146.31702,144.77602 0.9906,-0.92642"
         id="path2"
         sodipodi:nodetypes="cc" /></g><path
       style="fill:#000000;fill-opacity:1;stroke-width:0.04175"
       d="m 147.46136,147.22407 c -0.0653,-0.0233 -0.0925,-0.0459 -0.11753,-0.0975 -0.0223,-0.0461 -0.0233,-0.0645 -0.0237,-0.43127 -4.7e-4,-0.36597 7.1e-4,-0.38557 0.0229,-0.43739 0.0299,-0.0696 0.0619,-0.099 0.1344,-0.12349 l 0.0584,-0.0198 0.005,-0.24657 c 0.005,-0.22883 0.008,-0.2522 0.0342,-0.32501 0.0693,-0.1919 0.20046,-0.31339 0.39214,-0.36332 0.0842,-0.0219 0.27799,-0.0218 0.36263,2.4e-4 0.15095,0.0393 0.2697,0.13598 0.34102,0.27761 0.064,0.12711 0.0745,0.18324 0.0815,0.43281 l 0.006,0.22474 0.051,0.0218 c 0.0692,0.0296 0.11882,0.0802 0.13948,0.14236 0.0145,0.0438 0.0167,0.11239 0.014,0.44465 -0.003,0.3769 -0.005,0.39404 -0.0259,0.42329 -0.0329,0.0441 -0.0722,0.0706 -0.12167,0.082 -0.0239,0.005 -0.32916,0.01 -0.67849,0.01 -0.5013,-1.7e-4 -0.64389,-0.004 -0.6765,-0.015 z m 1.02354,-1.10667 c 0.0151,-0.005 0.0174,-0.0346 0.0174,-0.20787 0,-0.22573 -0.01,-0.27877 -0.0691,-0.36667 -0.0655,-0.0974 -0.1608,-0.14192 -0.30151,-0.14092 -0.18154,0.002 -0.30777,0.11964 -0.33735,0.3163 -0.009,0.063 -0.003,0.37811 0.009,0.39758 0.005,0.01 0.65652,0.0113 0.68193,0.002 z"
       id="path3" /></g></svg>
