<?xml version="1.0" encoding="UTF-8" standalone="no"?>
<!-- Created with Inkscape (http://www.inkscape.org/) -->

<svg
   width="113.59254mm"
   height="56.741653mm"
   viewBox="0 0 113.59254 56.741653"
   version="1.1"
   id="svg5"
   inkscape:version="1.1.2 (0a00cf5339, 2022-02-04)"
   sodipodi:docname="architecture_simple.svg"
   xmlns:inkscape="http://www.inkscape.org/namespaces/inkscape"
   xmlns:sodipodi="http://sodipodi.sourceforge.net/DTD/sodipodi-0.dtd"
   xmlns="http://www.w3.org/2000/svg"
   xmlns:svg="http://www.w3.org/2000/svg">
  <sodipodi:namedview
     id="namedview7"
     pagecolor="#ffffff"
     bordercolor="#666666"
     borderopacity="1.0"
     inkscape:pageshadow="2"
     inkscape:pageopacity="0.0"
     inkscape:pagecheckerboard="0"
     inkscape:document-units="mm"
     showgrid="false"
     showguides="true"
     inkscape:guide-bbox="true"
     fit-margin-top="0"
     fit-margin-left="0"
     fit-margin-right="0"
     fit-margin-bottom="0"
     inkscape:zoom="4.1877624"
     inkscape:cx="225.41871"
     inkscape:cy="62.563244"
     inkscape:window-width="2560"
     inkscape:window-height="1360"
     inkscape:window-x="0"
     inkscape:window-y="0"
     inkscape:window-maximized="1"
     inkscape:current-layer="layer1" />
  <defs
     id="defs2">
    <filter
       id="shadowFilter-g2da756bcedc_0_556.1"
       filterUnits="userSpaceOnUse">
      <feGaussianBlur
         in="SourceAlpha"
         stdDeviation="1.7777777"
         result="blur"
         id="feGaussianBlur833" />
      <feComponentTransfer
         in="blur"
         color-interpolation-filters="sRGB"
         id="feComponentTransfer843">
        <feFuncR
           type="linear"
           slope="0"
           intercept="0.0"
           id="feFuncR835" />
        <feFuncG
           type="linear"
           slope="0"
           intercept="0.0"
           id="feFuncG837" />
        <feFuncB
           type="linear"
           slope="0"
           intercept="0.0"
           id="feFuncB839" />
        <feFuncA
           type="linear"
           slope="0.4"
           intercept="0"
           id="feFuncA841" />
      </feComponentTransfer>
    </filter>
    <linearGradient
       id="g2da756bcedc_0_556.2"
       gradientUnits="userSpaceOnUse"
       gradientTransform="scale(24.7352,-24.7352)"
       spreadMethod="pad"
       x1="-0.9047007"
       y1="-0.90455753"
       x2="16.585695"
       y2="16.585901">
      <stop
         offset="0.0"
         stop-color="#5561a6"
         id="stop848" />
      <stop
         offset="1.0"
         stop-color="#26235c"
         id="stop850" />
    </linearGradient>
    <linearGradient
       id="g2da756bcedc_0_556.3"
       gradientUnits="userSpaceOnUse"
       gradientTransform="matrix(8.1978147,0,0,8.1978147,-40.265748,50.267358)"
       spreadMethod="pad"
       x1="0"
       y1="17.428234"
       x2="30.983868"
       y2="17.428234">
      <stop
         offset="0.0"
         stop-color="#5561a6"
         id="stop858" />
      <stop
         offset="1.0"
         stop-color="#26235c"
         id="stop860" />
    </linearGradient>
    <defs
       id="defs846">
      <filter
         id="filter1164"
         filterUnits="userSpaceOnUse">
        <feGaussianBlur
           in="SourceAlpha"
           stdDeviation="1.7777777"
           result="blur"
           id="feGaussianBlur1152" />
        <feComponentTransfer
           in="blur"
           color-interpolation-filters="sRGB"
           id="feComponentTransfer1162">
          <feFuncR
             type="linear"
             slope="0"
             intercept="0.0"
             id="feFuncR1154" />
          <feFuncG
             type="linear"
             slope="0"
             intercept="0.0"
             id="feFuncG1156" />
          <feFuncB
             type="linear"
             slope="0"
             intercept="0.0"
             id="feFuncB1158" />
          <feFuncA
             type="linear"
             slope="0.4"
             intercept="0"
             id="feFuncA1160" />
        </feComponentTransfer>
      </filter>
    </defs>
    <defs
       id="defs863">
      <linearGradient
         id="linearGradient1180"
         gradientUnits="userSpaceOnUse"
         gradientTransform="scale(30.983867)"
         spreadMethod="pad"
         x1="0"
         y1="17.428234"
         x2="30.983868"
         y2="17.428234">
        <stop
           offset="0.0"
           stop-color="#5561a6"
           id="stop1176" />
        <stop
           offset="1.0"
           stop-color="#26235c"
           id="stop1178" />
      </linearGradient>
    </defs>
  </defs>
  <g
     inkscape:label="Layer 1"
     inkscape:groupmode="layer"
     id="layer1"
     transform="translate(-70.972268,-101.8625)">
    <path
       fill="#000000"
       fill-opacity="0"
       d="m 96.843969,102.425 h 87.191671 v 55.64999 H 96.843969 Z"
       fill-rule="evenodd"
       id="path886"
       style="stroke:none;stroke-width:0.264583;stroke-linecap:square;stroke-miterlimit:10" />
    <path
       stroke="#dcdfed"
       stroke-width="1.05833"
       stroke-linejoin="round"
       stroke-linecap="butt"
       stroke-dasharray="16, 12"
       d="m 96.843969,102.425 h 87.191671 v 55.64999 H 96.843969 Z"
       fill-rule="evenodd"
       id="path888"
       style="fill:none;stroke-miterlimit:10" />
    <path
       fill="#dcdfed"
       d="m 134.6115,116.07349 v 0 c 0,-1.74596 4.46657,-3.16134 9.97638,-3.16134 5.50982,0 9.97639,1.41538 9.97639,3.16134 v 12.64537 c 0,1.74596 -4.46657,3.16135 -9.97639,3.16135 -5.50981,0 -9.97638,-1.41539 -9.97638,-3.16135 z"
       fill-rule="evenodd"
       id="path1036"
       style="stroke:none;stroke-width:0.264583;stroke-linecap:square;stroke-miterlimit:10" />
    <path
       fill="#000000"
       fill-opacity="0"
       d="m 154.56429,116.07349 v 0 c 0,1.74596 -4.46657,3.16135 -9.9764,3.16135 -5.5098,0 -9.97637,-1.41539 -9.97637,-3.16135"
       fill-rule="evenodd"
       id="path1038"
       style="stroke:none;stroke-width:0.264583;stroke-linecap:square;stroke-miterlimit:10" />
    <path
       fill="#000000"
       fill-opacity="0"
       d="m 134.6115,116.07349 v 0 c 0,-1.74596 4.46657,-3.16134 9.97638,-3.16134 5.50982,0 9.97639,1.41538 9.97639,3.16134 v 12.64537 c 0,1.74596 -4.46657,3.16135 -9.97639,3.16135 -5.50981,0 -9.97638,-1.41539 -9.97638,-3.16135 z"
       fill-rule="evenodd"
       id="path1040"
       style="stroke:none;stroke-width:0.264583;stroke-linecap:square;stroke-miterlimit:10" />
    <path
       stroke="#1c1a45"
       stroke-width="0.264583"
       stroke-linejoin="round"
       stroke-linecap="butt"
       d="m 154.56429,116.07349 v 0 c 0,1.74596 -4.46657,3.16135 -9.9764,3.16135 -5.5098,0 -9.97637,-1.41539 -9.97637,-3.16135"
       fill-rule="evenodd"
       id="path1042"
       style="fill:none;stroke-miterlimit:10" />
    <path
       stroke="#1c1a45"
       stroke-width="0.264583"
       stroke-linejoin="round"
       stroke-linecap="butt"
       d="m 134.6115,116.07349 v 0 c 0,-1.74596 4.46657,-3.16134 9.97638,-3.16134 5.50982,0 9.97639,1.41538 9.97639,3.16134 v 12.64537 c 0,1.74596 -4.46657,3.16135 -9.97639,3.16135 -5.50981,0 -9.97638,-1.41539 -9.97638,-3.16135 z"
       fill-rule="evenodd"
       id="path1044"
       style="fill:none;stroke-miterlimit:10" />
    <text
       xml:space="preserve"
       style="font-style:normal;font-weight:normal;font-size:3.4477px;line-height:1.25;font-family:sans-serif;letter-spacing:0px;word-spacing:0px;fill:#000000;fill-opacity:1;stroke:none;stroke-width:0.0861925"
       x="144.57025"
       y="123.48669"
       id="text4021-3"><tspan
         sodipodi:role="line"
         id="tspan4019-5"
         style="text-align:center;text-anchor:middle;stroke-width:0.0861925"
         x="144.57025"
         y="123.48669">object</tspan></text>
    <text
       xml:space="preserve"
       style="font-style:normal;font-weight:normal;font-size:3.4477px;line-height:1.25;font-family:sans-serif;letter-spacing:0px;word-spacing:0px;fill:#000000;fill-opacity:1;stroke:none;stroke-width:0.0861925"
       x="144.62244"
       y="126.90765"
       id="text4021-3-6"><tspan
         sodipodi:role="line"
         id="tspan4019-5-2"
         style="text-align:center;text-anchor:middle;stroke-width:0.0861925"
         x="144.62244"
         y="126.90765">storage</tspan></text>
    <path
       fill="#dcdfed"
       d="m 161.88616,116.70249 v 0 c 0,-1.57942 1.28036,-2.85978 2.85978,-2.85978 h 12.51378 c 0.75846,0 1.48585,0.30129 2.02216,0.83761 0.53632,0.53631 0.83761,1.26371 0.83761,2.02217 v 11.43877 c 0,1.57941 -1.28036,2.85977 -2.85977,2.85977 h -12.51378 c -1.57942,0 -2.85978,-1.28036 -2.85978,-2.85977 z"
       fill-rule="evenodd"
       id="path1050"
       style="stroke:none;stroke-width:0.264583;stroke-linecap:square;stroke-miterlimit:10" />
    <path
       stroke="#1c1a45"
       stroke-width="0.264583"
       stroke-linejoin="round"
       stroke-linecap="butt"
       d="m 161.88616,116.70249 v 0 c 0,-1.57942 1.28036,-2.85978 2.85978,-2.85978 h 12.51378 c 0.75846,0 1.48585,0.30129 2.02216,0.83761 0.53632,0.53631 0.83761,1.26371 0.83761,2.02217 v 11.43877 c 0,1.57941 -1.28036,2.85977 -2.85977,2.85977 h -12.51378 c -1.57942,0 -2.85978,-1.28036 -2.85978,-2.85977 z"
       fill-rule="evenodd"
       id="path1052"
       style="fill:none;stroke-miterlimit:10" />
    <text
       xml:space="preserve"
       style="font-style:normal;font-weight:normal;font-size:3.4477px;line-height:1.25;font-family:sans-serif;letter-spacing:0px;word-spacing:0px;fill:#000000;fill-opacity:1;stroke:none;stroke-width:0.0861925"
       x="171.002"
       y="121.35607"
       id="text3534"><tspan
         sodipodi:role="line"
         id="tspan3532"
         style="text-align:center;text-anchor:middle;stroke-width:0.0861925"
         x="171.002"
         y="121.35607">htsget</tspan></text>
    <text
       xml:space="preserve"
       style="font-style:normal;font-weight:normal;font-size:3.4477px;line-height:1.25;font-family:sans-serif;letter-spacing:0px;word-spacing:0px;fill:#000000;fill-opacity:1;stroke:none;stroke-width:0.0861925"
       x="170.99547"
       y="126.08369"
       id="text3840"><tspan
         sodipodi:role="line"
         id="tspan3838"
         style="text-align:center;text-anchor:middle;stroke-width:0.0861925"
         x="170.99547"
         y="126.08369">server</tspan></text>
    <path
       fill="#dcdfed"
       d="m 106.85282,116.84311 v 0 c 0,-1.57941 1.28037,-2.85978 2.85979,-2.85978 h 12.51377 c 0.75847,0 1.48586,0.3013 2.02217,0.83761 0.53632,0.53631 0.83761,1.26371 0.83761,2.02217 v 11.43878 c 0,1.57941 -1.28037,2.85977 -2.85978,2.85977 h -12.51377 c -1.57942,0 -2.85979,-1.28036 -2.85979,-2.85977 z"
       fill-rule="evenodd"
       id="path1058"
       style="stroke:none;stroke-width:0.264583;stroke-linecap:square;stroke-miterlimit:10" />
    <path
       stroke="#1c1a45"
       stroke-width="0.264583"
       stroke-linejoin="round"
       stroke-linecap="butt"
       d="m 106.85282,116.84311 v 0 c 0,-1.57941 1.28037,-2.85978 2.85979,-2.85978 h 12.51377 c 0.75847,0 1.48586,0.3013 2.02217,0.83761 0.53632,0.53631 0.83761,1.26371 0.83761,2.02217 v 11.43878 c 0,1.57941 -1.28037,2.85977 -2.85978,2.85977 h -12.51377 c -1.57942,0 -2.85979,-1.28036 -2.85979,-2.85977 z"
       fill-rule="evenodd"
       id="path1060"
       style="fill:none;stroke-miterlimit:10" />
    <path
       fill="#000000"
       fill-opacity="0"
       d="m 104.12366,147.15069 c -3.29434,0 -4.941817,0.004 -6.588682,0.008 -1.64688,0.004 -3.29316,0.008 -6.586323,0.008"
       fill-rule="evenodd"
       id="path1066"
       style="stroke:none;stroke-width:0.264583;stroke-linecap:square;stroke-miterlimit:10" />
    <path
       stroke="#1c1a45"
       stroke-width="0.264583"
       stroke-linejoin="round"
       stroke-linecap="butt"
       d="m 102.53616,147.15121 -0.60019,1.9e-4 c -0.64345,5.3e-4 -1.2097,0.001 -1.72446,0.002 -1.029521,0.002 -1.853101,0.004 -2.676532,0.006 -0.823446,0.002 -1.646734,0.004 -2.675805,0.006 -0.514543,8e-4 -1.080521,0.001 -1.723699,0.002 l -0.599319,1.9e-4"
       fill-rule="evenodd"
       id="path1068"
       style="fill:none;stroke-miterlimit:10" />
    <path
       fill="#1c1a45"
       stroke="#1c1a45"
       stroke-width="0.264583"
       stroke-linecap="butt"
       d="m 102.5363,147.58823 1.20056,-0.43742 -1.20085,-0.43662 z"
       fill-rule="evenodd"
       id="path1070"
       style="stroke-miterlimit:10" />
    <path
       fill="#1c1a45"
       stroke="#1c1a45"
       stroke-width="0.264583"
       stroke-linecap="butt"
       d="m 92.53602,146.72982 -1.200565,0.43741 1.200849,0.43663 z"
       fill-rule="evenodd"
       id="path1072"
       style="stroke-miterlimit:10" />
    <path
       fill="#dcdfed"
       d="m 71.104559,142.07118 h 19.841668 v 10.15833 H 71.104559 Z"
       fill-rule="evenodd"
       id="path1074"
       style="stroke:none;stroke-width:0.264583;stroke-linecap:square;stroke-miterlimit:10" />
    <path
       stroke="#1c1a45"
       stroke-width="0.264583"
       stroke-linejoin="round"
       stroke-linecap="butt"
       d="m 71.104559,142.07118 h 19.841668 v 10.15833 H 71.104559 Z"
       fill-rule="evenodd"
       id="path1076"
       style="fill:none;stroke-miterlimit:10" />
    <path
       fill="#000000"
       fill-opacity="0"
       d="m 154.56429,122.39617 c 1.83047,0 2.74534,0.006 3.66097,0.0125 0.91562,0.006 1.83201,0.0125 3.66403,0.0125"
       fill-rule="evenodd"
       id="path1080"
       style="stroke:none;stroke-width:0.264583;stroke-linecap:square;stroke-miterlimit:10" />
    <path
       stroke="#1c1a45"
       stroke-width="0.264583"
       stroke-linejoin="round"
       stroke-linecap="butt"
       d="m 154.56429,122.39617 c 1.83049,0 2.74534,0.006 3.66097,0.0125 0.4578,0.003 0.91582,0.006 1.48836,0.009 l 0.58817,0.002"
       fill-rule="evenodd"
       id="path1082"
       style="fill:none;stroke-miterlimit:10" />
    <path
       fill="#1c1a45"
       stroke="#1c1a45"
       stroke-width="0.264583"
       stroke-linecap="butt"
       d="m 160.3012,122.85603 1.20129,-0.43538 -1.2001,-0.43866 z"
       fill-rule="evenodd"
       id="path1084"
       style="stroke-miterlimit:10" />
    <path
       fill="#000000"
       fill-opacity="0"
       d="m 127.81534,147.15069 c 21.59582,0 43.19166,-8.075 43.19166,-16.15"
       fill-rule="evenodd"
       id="path1086"
       style="stroke:none;stroke-width:0.264583;stroke-linecap:square;stroke-miterlimit:10" />
    <path
       stroke="#1c1a45"
       stroke-width="0.264583"
       stroke-linejoin="round"
       stroke-linecap="butt"
       stroke-dasharray="4, 3"
       d="m 129.40276,147.13609 0.43652,-0.009 c 0.67421,-0.0155 1.34777,-0.0387 2.02,-0.0692 1.34446,-0.0611 2.68365,-0.1518 4.01232,-0.27008 2.6573,-0.23658 5.27241,-0.58355 7.80317,-1.02516 5.06153,-0.88319 9.78561,-2.14492 13.83483,-3.65898 8.09844,-3.02813 13.4974,-7.06562 13.4974,-11.10312"
       fill-rule="evenodd"
       id="path1088"
       style="fill:none;stroke-miterlimit:10" />
    <path
       fill="#1c1a45"
       stroke="#1c1a45"
       stroke-width="0.264583"
       stroke-linecap="butt"
       d="m 129.39874,146.69908 -1.19664,0.44805 1.20468,0.42596 z"
       fill-rule="evenodd"
       id="path1090"
       style="stroke-miterlimit:10" />
    <path
       fill="#dcdfed"
       d="m 104.12366,141.4313 v 0 c 0,-1.57941 1.28036,-2.85978 2.85977,-2.85978 h 17.97211 c 0.75847,0 1.48586,0.3013 2.02218,0.83761 0.53631,0.53631 0.83761,1.26371 0.83761,2.02217 v 11.43877 c 0,1.57942 -1.28038,2.85979 -2.85979,2.85979 h -17.97211 c -1.57941,0 -2.85977,-1.28037 -2.85977,-2.85979 z"
       fill-rule="evenodd"
       id="path1092"
       style="stroke:none;stroke-width:0.264583;stroke-linecap:square;stroke-miterlimit:10" />
    <path
       stroke="#1c1a45"
       stroke-width="0.264583"
       stroke-linejoin="round"
       stroke-linecap="butt"
       d="m 104.12366,141.4313 v 0 c 0,-1.57941 1.28036,-2.85978 2.85977,-2.85978 h 17.97211 c 0.75847,0 1.48586,0.3013 2.02218,0.83761 0.53631,0.53631 0.83761,1.26371 0.83761,2.02217 v 11.43877 c 0,1.57942 -1.28038,2.85979 -2.85979,2.85979 h -17.97211 c -1.57941,0 -2.85977,-1.28037 -2.85977,-2.85979 z"
       fill-rule="evenodd"
       id="path1094"
       style="fill:none;stroke-miterlimit:10" />
    <text
       xml:space="preserve"
       style="font-style:normal;font-weight:normal;font-size:3.4477px;line-height:1.25;font-family:sans-serif;letter-spacing:0px;word-spacing:0px;fill:#000000;fill-opacity:1;stroke:none;stroke-width:0.0861925"
       x="115.95083"
       y="146.04999"
       id="text3880-3"><tspan
         sodipodi:role="line"
         id="tspan3878-6"
         style="text-align:center;text-anchor:middle;stroke-width:0.0861925"
         x="115.95083"
         y="146.04999">reverse</tspan></text>
    <text
       xml:space="preserve"
       style="font-style:normal;font-weight:normal;font-size:3.4477px;line-height:1.25;font-family:sans-serif;letter-spacing:0px;word-spacing:0px;fill:#000000;fill-opacity:1;stroke:none;stroke-width:0.0861925"
       x="81.050629"
       y="148.5282"
       id="text3880-3-7"><tspan
         sodipodi:role="line"
         id="tspan3878-6-5"
         style="text-align:center;text-anchor:middle;stroke-width:0.0861925"
         x="81.050629"
         y="148.5282">client</tspan></text>
    <text
       xml:space="preserve"
       style="font-style:normal;font-weight:normal;font-size:3.4477px;line-height:1.25;font-family:sans-serif;letter-spacing:0px;word-spacing:0px;fill:#000000;fill-opacity:1;stroke:none;stroke-width:0.0861925"
       x="115.97592"
       y="150.86276"
       id="text2138"><tspan
         sodipodi:role="line"
         id="tspan2136"
         style="text-align:center;text-anchor:middle;stroke-width:0.0861925"
         x="115.97592"
         y="150.86276">proxy</tspan></text>
    <path
       fill="#000000"
       fill-opacity="0"
       d="m 134.6115,122.39617 c -2.38134,0 -3.57206,0.0417 -4.76269,0.0833 -1.19062,0.0417 -2.38115,0.0833 -4.76231,0.0833"
       fill-rule="evenodd"
       id="path1100"
       style="stroke:none;stroke-width:0.264583;stroke-linecap:square;stroke-miterlimit:10" />
    <path
       stroke="#1c1a45"
       stroke-width="0.264583"
       stroke-linejoin="round"
       stroke-linecap="butt"
       d="m 133.02403,122.40342 -0.65203,0.008 c -0.20696,0.003 -0.40231,0.007 -0.58835,0.0107 -0.74419,0.0156 -1.33952,0.0365 -1.93483,0.0573 -0.59531,0.0208 -1.19061,0.0417 -1.9347,0.0573 -0.18603,0.004 -0.38137,0.007 -0.58832,0.0107 l -0.65182,0.008"
       fill-rule="evenodd"
       id="path1102"
       style="fill:none;stroke-miterlimit:10" />
    <path
       fill="#1c1a45"
       stroke="#1c1a45"
       stroke-width="0.264583"
       stroke-linecap="butt"
       d="m 133.02601,122.84043 1.1987,-0.44249 -1.20269,-0.43154 z"
       fill-rule="evenodd"
       id="path1104"
       style="stroke-miterlimit:10" />
    <path
       fill="#1c1a45"
       stroke="#1c1a45"
       stroke-width="0.264583"
       stroke-linecap="butt"
       d="m 126.67199,122.11859 -1.1987,0.44249 1.20269,0.43154 z"
       fill-rule="evenodd"
       id="path1106"
       style="stroke-miterlimit:10" />
    <path
       fill="#000000"
       fill-opacity="0"
       d="m 127.81534,147.15069 c 8.38748,0 16.77499,-7.63333 16.77499,-15.26667"
       fill-rule="evenodd"
       id="path1108"
       style="stroke:none;stroke-width:0.264583;stroke-linecap:square;stroke-miterlimit:10" />
    <path
       stroke="#1c1a45"
       stroke-width="0.264583"
       stroke-linejoin="round"
       stroke-linecap="butt"
       d="m 129.40032,147.06141 0.18133,-0.0213 c 0.0652,-0.008 0.13037,-0.0166 0.1955,-0.0256 0.13026,-0.0179 0.26035,-0.0375 0.39025,-0.0589 0.25981,-0.0426 0.51885,-0.092 0.77686,-0.14792 1.03204,-0.22364 2.04773,-0.55163 3.03063,-0.96908 1.96582,-0.8349 3.80059,-2.0276 5.37325,-3.45886 1.57266,-1.43125 2.88321,-3.10103 3.80059,-4.8901 0.4587,-0.89453 0.81909,-1.81888 1.06481,-2.75814 0.0615,-0.23481 0.11569,-0.47056 0.16256,-0.707 0.0234,-0.11822 0.045,-0.23663 0.0646,-0.35517 0.01,-0.0593 0.0192,-0.11857 0.0281,-0.17792 l 0.003,-0.0244"
       fill-rule="evenodd"
       id="path1110"
       style="fill:none;stroke-miterlimit:10" />
    <path
       fill="#1c1a45"
       stroke="#1c1a45"
       stroke-width="0.264583"
       stroke-linecap="butt"
       d="m 129.37574,146.62508 -1.17423,0.50386 1.22339,0.3688 z"
       fill-rule="evenodd"
       id="path1112"
       style="stroke-miterlimit:10" />
    <path
       fill="#1c1a45"
       stroke="#1c1a45"
       stroke-width="0.264583"
       stroke-linecap="butt"
       d="m 144.90811,133.49962 -0.34654,-1.22987 -0.52508,1.16489 z"
       fill-rule="evenodd"
       id="path1114"
       style="stroke-miterlimit:10" />
    <path
       fill="#000000"
       fill-opacity="0"
       d="m 115.96949,131.14166 c 0,1.85749 0.004,2.7858 0.008,3.71496 0.004,0.92917 0.008,1.85919 0.008,3.71838"
       fill-rule="evenodd"
       id="path1116"
       style="stroke:none;stroke-width:0.264583;stroke-linecap:square;stroke-miterlimit:10" />
    <path
       stroke="#1c1a45"
       stroke-width="0.264583"
       stroke-linejoin="round"
       stroke-linecap="butt"
       d="m 115.97089,132.72916 0.001,0.6181 c 0.002,0.58041 0.004,1.04478 0.006,1.50936 0.002,0.46458 0.004,0.92938 0.006,1.51043 l 10e-4,0.62045"
       fill-rule="evenodd"
       id="path1118"
       style="fill:none;stroke-miterlimit:10" />
    <path
       fill="#1c1a45"
       stroke="#1c1a45"
       stroke-width="0.264583"
       stroke-linecap="butt"
       d="m 116.40792,132.72877 -0.43808,-1.20031 -0.43596,1.20109 z"
       fill-rule="evenodd"
       id="path1120"
       style="stroke-miterlimit:10" />
    <path
       fill="#1c1a45"
       stroke="#1c1a45"
       stroke-width="0.264583"
       stroke-linecap="butt"
       d="m 115.54774,136.98788 0.43808,1.20032 0.43596,-1.20109 z"
       fill-rule="evenodd"
       id="path1122"
       style="stroke-miterlimit:10" />
    <path
       fill="#dcdfed"
       d="m 96.281475,101.8625 h 18.233335 v 10.25833 H 96.281475 Z"
       fill-rule="evenodd"
       id="path1124"
       style="stroke:none;stroke-width:0.264583;stroke-linecap:square;stroke-miterlimit:10" />
    <text
       xml:space="preserve"
       style="font-style:normal;font-weight:normal;font-size:3.4477px;line-height:1.25;font-family:sans-serif;letter-spacing:0px;word-spacing:0px;fill:#000000;fill-opacity:1;stroke:none;stroke-width:0.0861925"
       x="104.54516"
       y="108.15117"
       id="text3880-9"><tspan
         sodipodi:role="line"
         id="tspan3878-1"
         style="text-align:center;text-anchor:middle;stroke-width:0.0861925"
         x="104.54516"
         y="108.15117">server</tspan></text>
    <text
       xml:space="preserve"
       style="font-style:normal;font-weight:normal;font-size:3.4477px;line-height:1.25;font-family:sans-serif;letter-spacing:0px;word-spacing:0px;fill:#000000;fill-opacity:1;stroke:none;stroke-width:0.0861925"
       x="115.74244"
       y="121.51038"
       id="text4021"><tspan
         sodipodi:role="line"
         id="tspan4019"
         style="text-align:center;text-anchor:middle;stroke-width:0.0861925"
         x="115.74244"
         y="121.51038">modos</tspan></text>
    <text
       xml:space="preserve"
       style="font-style:normal;font-weight:normal;font-size:3.4477px;line-height:1.25;font-family:sans-serif;letter-spacing:0px;word-spacing:0px;fill:#000000;fill-opacity:1;stroke:none;stroke-width:0.0861925"
       x="115.7214"
       y="126.08369"
       id="text3880"><tspan
         sodipodi:role="line"
         id="tspan3878"
         style="text-align:center;text-anchor:middle;stroke-width:0.0861925"
         x="115.7214"
         y="126.08369">server</tspan></text>
    <text
       xml:space="preserve"
       style="font-style:normal;font-weight:normal;font-size:3.4477px;line-height:1.25;font-family:sans-serif;letter-spacing:0px;word-spacing:0px;fill:#000000;fill-opacity:1;stroke:none;stroke-width:0.0861925"
       x="144.62244"
       y="130.61185"
       id="text3428"><tspan
         sodipodi:role="line"
         id="tspan3426"
         style="text-align:center;text-anchor:middle;stroke-width:0.0861925"
         x="144.62244"
         y="130.61185">S3</tspan></text>
  </g>
</svg>
