<?xml version="1.0" encoding="UTF-8" standalone="no"?>
<!-- Created with Inkscape (http://www.inkscape.org/) -->

<svg
   width="113.59254mm"
   height="56.741653mm"
   viewBox="0 0 113.59254 56.741653"
   version="1.1"
   id="svg5"
   inkscape:version="1.1.2 (0a00cf5339, 2022-02-04)"
   sodipodi:docname="architecture_simple.svg"
   xmlns:inkscape="http://www.inkscape.org/namespaces/inkscape"
   xmlns:sodipodi="http://sodipodi.sourceforge.net/DTD/sodipodi-0.dtd"
   xmlns="http://www.w3.org/2000/svg"
   xmlns:svg="http://www.w3.org/2000/svg">
  <sodipodi:namedview
     id="namedview7"
     pagecolor="#ffffff"
     bordercolor="#666666"
     borderopacity="1.0"
     inkscape:pageshadow="2"
     inkscape:pageopacity="0.0"
     inkscape:pagecheckerboard="0"
     inkscape:document-units="mm"
     showgrid="false"
     showguides="true"
     inkscape:guide-bbox="true"
     fit-margin-top="0"
     fit-margin-left="0"
     fit-margin-right="0"
     fit-margin-bottom="0"
     inkscape:zoom="1.0469406"
     inkscape:cx="53.489184"
     inkscape:cy="74.502792"
     inkscape:window-width="3424"
     inkscape:window-height="1344"
     inkscape:window-x="56"
     inkscape:window-y="50"
     inkscape:window-maximized="0"
     inkscape:current-layer="layer1" />
  <defs
     id="defs2">
    <filter
       id="shadowFilter-g2da756bcedc_0_556.1"
       filterUnits="userSpaceOnUse">
      <feGaussianBlur
         in="SourceAlpha"
         stdDeviation="1.7777777"
         result="blur"
         id="feGaussianBlur833" />
      <feComponentTransfer
         in="blur"
         color-interpolation-filters="sRGB"
         id="feComponentTransfer843">
        <feFuncR
           type="linear"
           slope="0"
           intercept="0.0"
           id="feFuncR835" />
        <feFuncG
           type="linear"
           slope="0"
           intercept="0.0"
           id="feFuncG837" />
        <feFuncB
           type="linear"
           slope="0"
           intercept="0.0"
           id="feFuncB839" />
        <feFuncA
           type="linear"
           slope="0.4"
           intercept="0"
           id="feFuncA841" />
      </feComponentTransfer>
    </filter>
    <linearGradient
       id="g2da756bcedc_0_556.2"
       gradientUnits="userSpaceOnUse"
       gradientTransform="scale(24.7352,-24.7352)"
       spreadMethod="pad"
       x1="-0.9047007"
       y1="-0.90455753"
       x2="16.585695"
       y2="16.585901">
      <stop
         offset="0.0"
         stop-color="#5561a6"
         id="stop848" />
      <stop
         offset="1.0"
         stop-color="#26235c"
         id="stop850" />
    </linearGradient>
    <linearGradient
       id="g2da756bcedc_0_556.3"
       gradientUnits="userSpaceOnUse"
       gradientTransform="matrix(8.1978147,0,0,8.1978147,-40.265748,50.267358)"
       spreadMethod="pad"
       x1="0"
       y1="17.428234"
       x2="30.983868"
       y2="17.428234">
      <stop
         offset="0.0"
         stop-color="#5561a6"
         id="stop858" />
      <stop
         offset="1.0"
         stop-color="#26235c"
         id="stop860" />
    </linearGradient>
    <defs
       id="defs846">
      <filter
         id="filter1164"
         filterUnits="userSpaceOnUse">
        <feGaussianBlur
           in="SourceAlpha"
           stdDeviation="1.7777777"
           result="blur"
           id="feGaussianBlur1152" />
        <feComponentTransfer
           in="blur"
           color-interpolation-filters="sRGB"
           id="feComponentTransfer1162">
          <feFuncR
             type="linear"
             slope="0"
             intercept="0.0"
             id="feFuncR1154" />
          <feFuncG
             type="linear"
             slope="0"
             intercept="0.0"
             id="feFuncG1156" />
          <feFuncB
             type="linear"
             slope="0"
             intercept="0.0"
             id="feFuncB1158" />
          <feFuncA
             type="linear"
             slope="0.4"
             intercept="0"
             id="feFuncA1160" />
        </feComponentTransfer>
      </filter>
    </defs>
    <defs
       id="defs863">
      <linearGradient
         id="linearGradient1180"
         gradientUnits="userSpaceOnUse"
         gradientTransform="scale(30.983867)"
         spreadMethod="pad"
         x1="0"
         y1="17.428234"
         x2="30.983868"
         y2="17.428234">
        <stop
           offset="0.0"
           stop-color="#5561a6"
           id="stop1176" />
        <stop
           offset="1.0"
           stop-color="#26235c"
           id="stop1178" />
      </linearGradient>
    </defs>
  </defs>
  <g
     inkscape:label="Layer 1"
     inkscape:groupmode="layer"
     id="layer1"
     transform="translate(-70.972268,-101.8625)">
    <path
       fill="#000000"
       fill-opacity="0"
       d="m 96.843969,102.425 h 87.191671 v 55.64999 H 96.843969 Z"
       fill-rule="evenodd"
       id="path886"
       style="stroke:none;stroke-width:0.264583;stroke-linecap:square;stroke-miterlimit:10" />
    <path
       stroke="#dcdfed"
       stroke-width="1.05833"
       stroke-linejoin="round"
       stroke-linecap="butt"
       stroke-dasharray="16, 12"
       d="m 96.843969,102.425 h 87.191671 v 55.64999 H 96.843969 Z"
       fill-rule="evenodd"
       id="path888"
       style="fill:none;stroke-miterlimit:10" />
    <path
       fill="#dcdfed"
       d="m 134.6115,116.07349 v 0 c 0,-1.74596 4.46657,-3.16134 9.97638,-3.16134 5.50982,0 9.97639,1.41538 9.97639,3.16134 v 12.64537 c 0,1.74596 -4.46657,3.16135 -9.97639,3.16135 -5.50981,0 -9.97638,-1.41539 -9.97638,-3.16135 z"
       fill-rule="evenodd"
       id="path1036"
       style="stroke:none;stroke-width:0.264583;stroke-linecap:square;stroke-miterlimit:10" />
    <path
       fill="#000000"
       fill-opacity="0"
       d="m 154.56429,116.07349 v 0 c 0,1.74596 -4.46657,3.16135 -9.9764,3.16135 -5.5098,0 -9.97637,-1.41539 -9.97637,-3.16135"
       fill-rule="evenodd"
       id="path1038"
       style="stroke:none;stroke-width:0.264583;stroke-linecap:square;stroke-miterlimit:10" />
    <path
       fill="#000000"
       fill-opacity="0"
       d="m 134.6115,116.07349 v 0 c 0,-1.74596 4.46657,-3.16134 9.97638,-3.16134 5.50982,0 9.97639,1.41538 9.97639,3.16134 v 12.64537 c 0,1.74596 -4.46657,3.16135 -9.97639,3.16135 -5.50981,0 -9.97638,-1.41539 -9.97638,-3.16135 z"
       fill-rule="evenodd"
       id="path1040"
       style="stroke:none;stroke-width:0.264583;stroke-linecap:square;stroke-miterlimit:10" />
    <path
       stroke="#1c1a45"
       stroke-width="0.264583"
       stroke-linejoin="round"
       stroke-linecap="butt"
       d="m 154.56429,116.07349 v 0 c 0,1.74596 -4.46657,3.16135 -9.9764,3.16135 -5.5098,0 -9.97637,-1.41539 -9.97637,-3.16135"
       fill-rule="evenodd"
       id="path1042"
       style="fill:none;stroke-miterlimit:10" />
    <path
       stroke="#1c1a45"
       stroke-width="0.264583"
       stroke-linejoin="round"
       stroke-linecap="butt"
       d="m 134.6115,116.07349 v 0 c 0,-1.74596 4.46657,-3.16134 9.97638,-3.16134 5.50982,0 9.97639,1.41538 9.97639,3.16134 v 12.64537 c 0,1.74596 -4.46657,3.16135 -9.97639,3.16135 -5.50981,0 -9.97638,-1.41539 -9.97638,-3.16135 z"
       fill-rule="evenodd"
       id="path1044"
       style="fill:none;stroke-miterlimit:10" />
    <path
       fill="#000000"
       d="m 140.92117,122.51486 q 0,-0.40514 0.22324,-0.59945 0.19017,-0.16536 0.45889,-0.16536 0.30179,0 0.49196,0.19844 0.1943,0.19843 0.1943,0.5457 0,0.28112 -0.0868,0.44648 -0.0827,0.16123 -0.24392,0.25219 -0.16123,0.0868 -0.35553,0.0868 -0.30592,0 -0.49609,-0.1943 -0.18604,-0.19844 -0.18604,-0.57051 z m 0.25218,0 q 0,0.28112 0.12403,0.42168 0.12402,0.14056 0.30592,0.14056 0.18603,0 0.30593,-0.14056 0.12402,-0.14056 0.12402,-0.42995 0,-0.26872 -0.12402,-0.40928 -0.1199,-0.14056 -0.30593,-0.14056 -0.1819,0 -0.30592,0.14056 -0.12403,0.13643 -0.12403,0.41755 z m 1.6342,0.73174 h -0.22737 v -2.01745 h 0.24804 v 0.71934 q 0.1571,-0.19844 0.39688,-0.19844 0.13643,0 0.25631,0.0579 0.11989,0.0537 0.19844,0.15296 0.0786,0.0951 0.11989,0.23564 0.0455,0.14056 0.0455,0.29766 0,0.3762 -0.18604,0.58291 -0.18603,0.20257 -0.44648,0.20257 -0.25632,0 -0.40515,-0.21497 z m 0,-0.74001 q 0,0.26045 0.0703,0.37621 0.11576,0.1943 0.3142,0.1943 0.16536,0 0.28112,-0.14056 0.11989,-0.1447 0.11989,-0.42168 0,-0.28525 -0.11576,-0.42168 -0.11162,-0.13643 -0.27285,-0.13643 -0.16123,0 -0.28112,0.14056 -0.11576,0.14056 -0.11576,0.40928 z m 1.34067,-0.99219 v -0.28525 h 0.24805 v 0.28525 z m -0.31419,2.29857 0.0455,-0.21084 q 0.0744,0.0207 0.11576,0.0207 0.0786,0 0.11575,-0.0496 0.0372,-0.0496 0.0372,-0.25219 v -1.53789 h 0.24805 v 1.54203 q 0,0.27285 -0.0703,0.3762 -0.0909,0.14056 -0.29765,0.14056 -0.10335,0 -0.1943,-0.0289 z m 1.94104,-1.03766 0.25632,0.0331 q -0.062,0.22324 -0.22738,0.34727 -0.16123,0.12402 -0.41754,0.12402 -0.31833,0 -0.5085,-0.19844 -0.18603,-0.19843 -0.18603,-0.55397 0,-0.36793 0.19016,-0.57051 0.19017,-0.2067 0.49196,-0.2067 0.29353,0 0.47956,0.20257 0.18604,0.19844 0.18604,0.56224 0,0.0207 0,0.062 h -1.09141 q 0.0124,0.24391 0.13642,0.37207 0.12403,0.12816 0.30593,0.12816 0.13643,0 0.23151,-0.0703 0.0951,-0.0744 0.15296,-0.23151 z m -0.81442,-0.40101 h 0.81856 q -0.0165,-0.1819 -0.0951,-0.27699 -0.11989,-0.14056 -0.30592,-0.14056 -0.1695,0 -0.28939,0.11576 -0.11575,0.11162 -0.12816,0.30179 z m 2.33701,0.33486 0.24391,0.0331 q -0.0413,0.25218 -0.20671,0.39687 -0.16536,0.14056 -0.40514,0.14056 -0.29766,0 -0.47956,-0.1943 -0.1819,-0.19844 -0.1819,-0.56224 0,-0.23978 0.0786,-0.41755 0.0786,-0.17776 0.23564,-0.26458 0.16123,-0.0909 0.3514,-0.0909 0.23565,0 0.38861,0.12402 0.15296,0.11989 0.1943,0.339 l -0.23978,0.0372 q -0.0372,-0.1447 -0.12402,-0.21911 -0.0868,-0.0744 -0.21084,-0.0744 -0.18604,0 -0.30592,0.13643 -0.11576,0.13229 -0.11576,0.42168 0,0.29352 0.11162,0.42995 0.11576,0.13229 0.29766,0.13229 0.14469,0 0.23978,-0.091 0.0992,-0.0909 0.12816,-0.27699 z m 0.99632,0.3142 0.0331,0.2191 q -0.10335,0.0248 -0.18604,0.0248 -0.13229,0 -0.2067,-0.0413 -0.0744,-0.0455 -0.10749,-0.11575 -0.0289,-0.0703 -0.0289,-0.29352 v -0.83923 h -0.1819 v -0.1943 h 0.1819 v -0.35967 l 0.24805,-0.14883 v 0.5085 h 0.24805 v 0.1943 H 148.046 v 0.85576 q 0,0.10336 0.0124,0.13643 0.0124,0.0289 0.0413,0.0496 0.0289,0.0165 0.0868,0.0165 0.0413,0 0.10749,-0.0124 z"
       fill-rule="nonzero"
       id="path1046"
       style="stroke:none;stroke-width:0.264583;stroke-linecap:square;stroke-miterlimit:10" />
    <path
       fill="#000000"
       d="m 137.85664,126.24796 0.24392,-0.0372 q 0.0207,0.14882 0.11575,0.22737 0.0951,0.0785 0.26458,0.0785 0.1695,0 0.25219,-0.0703 0.0827,-0.0703 0.0827,-0.16536 0,-0.0827 -0.0744,-0.13229 -0.0496,-0.0331 -0.25219,-0.0827 -0.27285,-0.0703 -0.38034,-0.11989 -0.10335,-0.0496 -0.15709,-0.13642 -0.0537,-0.0909 -0.0537,-0.19844 0,-0.0951 0.0455,-0.17777 0.0455,-0.0868 0.11989,-0.14056 0.0579,-0.0413 0.1571,-0.0703 0.10335,-0.0331 0.21497,-0.0331 0.17363,0 0.30179,0.0496 0.13229,0.0496 0.1943,0.13643 0.062,0.0827 0.0827,0.22737 l -0.23978,0.0331 q -0.0165,-0.11576 -0.0992,-0.17777 -0.0785,-0.062 -0.21911,-0.062 -0.17363,0 -0.24805,0.0579 -0.0703,0.0537 -0.0703,0.12816 0,0.0496 0.0289,0.0868 0.0331,0.0413 0.0951,0.0661 0.0372,0.0165 0.2191,0.0661 0.26459,0.0703 0.36794,0.11576 0.10335,0.0413 0.16123,0.12815 0.062,0.0827 0.062,0.21084 0,0.12403 -0.0744,0.23565 -0.0703,0.10748 -0.20671,0.1695 -0.13642,0.0579 -0.31006,0.0579 -0.28525,0 -0.43408,-0.11575 -0.14882,-0.11989 -0.19017,-0.35554 z m 2.05053,0.21498 0.0331,0.21911 q -0.10336,0.0248 -0.18604,0.0248 -0.13229,0 -0.2067,-0.0413 -0.0744,-0.0455 -0.10749,-0.11576 -0.0289,-0.0703 -0.0289,-0.29352 v -0.83923 h -0.1819 v -0.1943 h 0.1819 v -0.35967 l 0.24805,-0.14883 v 0.5085 h 0.24805 v 0.1943 h -0.24805 v 0.85577 q 0,0.10335 0.0124,0.13642 0.0124,0.0289 0.0413,0.0496 0.0289,0.0165 0.0868,0.0165 0.0413,0 0.10748,-0.0124 z m 0.15081,-0.5085 q 0,-0.40514 0.22324,-0.59944 0.19017,-0.16537 0.45889,-0.16537 0.30179,0 0.49196,0.19844 0.1943,0.19844 0.1943,0.5457 0,0.28112 -0.0868,0.44649 -0.0827,0.16123 -0.24392,0.25218 -0.16123,0.0868 -0.35553,0.0868 -0.30593,0 -0.4961,-0.1943 -0.18603,-0.19844 -0.18603,-0.57051 z m 0.25218,0 q 0,0.28112 0.12402,0.42168 0.12403,0.14056 0.30593,0.14056 0.18603,0 0.30592,-0.14056 0.12403,-0.14056 0.12403,-0.42995 0,-0.26871 -0.12403,-0.40927 -0.11989,-0.14056 -0.30592,-0.14056 -0.1819,0 -0.30593,0.14056 -0.12402,0.13642 -0.12402,0.41754 z m 1.40269,0.73174 v -1.46348 h 0.22325 v 0.22325 q 0.0868,-0.1571 0.15709,-0.20671 0.0744,-0.0496 0.16123,-0.0496 0.12403,0 0.25218,0.0827 l -0.0827,0.22738 q -0.091,-0.0537 -0.1819,-0.0537 -0.0827,0 -0.14883,0.0496 -0.062,0.0496 -0.0909,0.13642 -0.0413,0.13229 -0.0413,0.28939 v 0.76481 z m 1.89801,-0.1819 q -0.14056,0.11989 -0.26872,0.1695 -0.12402,0.0455 -0.26871,0.0455 -0.24392,0 -0.37207,-0.11575 -0.12816,-0.11989 -0.12816,-0.30179 0,-0.10749 0.0455,-0.19431 0.0496,-0.0909 0.12815,-0.14469 0.0827,-0.0537 0.1819,-0.0827 0.0703,-0.0165 0.21911,-0.0372 0.29766,-0.0331 0.44235,-0.0827 0,-0.0538 0,-0.0662 0,-0.15296 -0.0703,-0.21497 -0.0951,-0.0827 -0.28112,-0.0827 -0.17363,0 -0.26045,0.062 -0.0827,0.062 -0.11989,0.21497 l -0.24391,-0.0331 q 0.0331,-0.15296 0.10749,-0.24805 0.0786,-0.0992 0.21911,-0.14883 0.14469,-0.0537 0.33073,-0.0537 0.19017,0 0.30592,0.0455 0.11576,0.0455 0.1695,0.11162 0.0579,0.0661 0.0786,0.16949 0.0124,0.062 0.0124,0.22738 v 0.33073 q 0,0.34313 0.0165,0.43822 0.0165,0.0909 0.062,0.17363 h -0.25632 q -0.0413,-0.0785 -0.0496,-0.1819 z m -0.0207,-0.54984 q -0.13642,0.0537 -0.40514,0.0909 -0.15296,0.0207 -0.21911,0.0496 -0.062,0.0289 -0.0951,0.0827 -0.0331,0.0496 -0.0331,0.11576 0,0.0992 0.0744,0.16536 0.0744,0.0662 0.21911,0.0662 0.14056,0 0.25218,-0.062 0.11163,-0.062 0.16537,-0.17363 0.0413,-0.0827 0.0413,-0.24805 z m 0.58827,0.85163 0.23978,0.0372 q 0.0165,0.11162 0.0868,0.16123 0.091,0.0703 0.24804,0.0703 0.17364,0 0.26459,-0.0703 0.0951,-0.0661 0.12815,-0.19017 0.0207,-0.0786 0.0207,-0.31833 -0.16537,0.19017 -0.40514,0.19017 -0.3018,0 -0.46716,-0.21497 -0.16537,-0.21911 -0.16537,-0.52504 0,-0.2067 0.0744,-0.38447 0.0786,-0.17777 0.21911,-0.27285 0.14469,-0.0992 0.339,-0.0992 0.26044,0 0.42581,0.21084 v -0.17777 h 0.23151 v 1.26504 q 0,0.34313 -0.0703,0.48369 -0.0703,0.1447 -0.22324,0.22738 -0.14883,0.0827 -0.36794,0.0827 -0.26045,0 -0.42168,-0.11989 -0.16123,-0.11575 -0.1571,-0.35553 z m 0.20671,-0.87643 q 0,0.28525 0.11162,0.41754 0.11575,0.13229 0.28525,0.13229 0.17364,0 0.28939,-0.12815 0.11576,-0.1323 0.11576,-0.41342 0,-0.26871 -0.11989,-0.40514 -0.11989,-0.13642 -0.28939,-0.13642 -0.16123,0 -0.27699,0.13642 -0.11575,0.13229 -0.11575,0.39688 z m 2.40728,0.28525 0.25631,0.0331 q -0.062,0.22325 -0.22737,0.34727 -0.16123,0.12402 -0.41755,0.12402 -0.31832,0 -0.50849,-0.19843 -0.18604,-0.19844 -0.18604,-0.55398 0,-0.36793 0.19017,-0.5705 0.19017,-0.20671 0.49196,-0.20671 0.29352,0 0.47956,0.20257 0.18603,0.19844 0.18603,0.56224 0,0.0207 0,0.062 h -1.0914 q 0.0124,0.24392 0.13642,0.37207 0.12403,0.12816 0.30593,0.12816 0.13642,0 0.23151,-0.0703 0.0951,-0.0744 0.15296,-0.23151 z m -0.81442,-0.40101 h 0.81856 q -0.0165,-0.1819 -0.0951,-0.27698 -0.11989,-0.14056 -0.30593,-0.14056 -0.16949,0 -0.28938,0.11575 -0.11576,0.11162 -0.12816,0.30179 z m 2.10748,0.22324 0.25218,-0.0207 q 0.0165,0.14883 0.0827,0.24805 0.0661,0.0951 0.20257,0.15709 0.13643,0.0579 0.31006,0.0579 0.15296,0 0.26872,-0.0455 0.11575,-0.0455 0.17363,-0.12402 0.0579,-0.0785 0.0579,-0.17363 0,-0.0951 -0.0579,-0.16537 -0.0537,-0.0703 -0.17777,-0.11575 -0.0827,-0.0331 -0.35966,-0.0992 -0.27699,-0.0662 -0.38861,-0.12816 -0.1447,-0.0744 -0.21911,-0.18603 -0.0703,-0.11162 -0.0703,-0.25218 0,-0.15297 0.0868,-0.28526 0.0868,-0.13229 0.25218,-0.20257 0.1695,-0.0703 0.37207,-0.0703 0.22324,0 0.39274,0.0744 0.17363,0.0703 0.26458,0.21084 0.0951,0.14056 0.10336,0.31833 l -0.25632,0.0207 q -0.0207,-0.19016 -0.14056,-0.28938 -0.11989,-0.0992 -0.3514,-0.0992 -0.24391,0 -0.35553,0.0909 -0.10749,0.0868 -0.10749,0.21497 0,0.10749 0.0786,0.17777 0.0744,0.0703 0.40101,0.14469 0.32659,0.0744 0.44648,0.12816 0.17777,0.0827 0.26045,0.20671 0.0827,0.12402 0.0827,0.28525 0,0.16123 -0.0909,0.30592 -0.0909,0.14056 -0.26458,0.21911 -0.17363,0.0786 -0.38861,0.0786 -0.27698,0 -0.46302,-0.0786 -0.1819,-0.0785 -0.28938,-0.23978 -0.10336,-0.16123 -0.10749,-0.3638 z m 1.87228,0.11576 0.24805,-0.0331 q 0.0413,0.21084 0.14469,0.30592 0.10336,0.0909 0.24805,0.0909 0.17363,0 0.29352,-0.11989 0.12403,-0.12402 0.12403,-0.30179 0,-0.1695 -0.11162,-0.28112 -0.11163,-0.11162 -0.28526,-0.11162 -0.0703,0 -0.17363,0.0289 l 0.0289,-0.21911 q 0.0248,0.004 0.0372,0.004 0.1571,0 0.28526,-0.0827 0.12816,-0.0827 0.12816,-0.25632 0,-0.13642 -0.0951,-0.22324 -0.0909,-0.091 -0.23564,-0.091 -0.1447,0 -0.24392,0.091 -0.0951,0.0909 -0.11989,0.27285 l -0.24804,-0.0455 q 0.0455,-0.24805 0.2067,-0.38448 0.16123,-0.13642 0.39688,-0.13642 0.16536,0 0.30592,0.0703 0.14056,0.0703 0.21084,0.1943 0.0744,0.11989 0.0744,0.26045 0,0.12816 -0.0703,0.23565 -0.0703,0.10748 -0.20671,0.17363 0.17777,0.0413 0.27699,0.17363 0.0992,0.12816 0.0992,0.32246 0,0.26459 -0.19431,0.45062 -0.19017,0.1819 -0.48369,0.1819 -0.26458,0 -0.44235,-0.1571 -0.17363,-0.16122 -0.19844,-0.41341 z"
       fill-rule="nonzero"
       id="path1048"
       style="stroke:none;stroke-width:0.264583;stroke-linecap:square;stroke-miterlimit:10" />
    <path
       fill="#dcdfed"
       d="m 161.88616,116.70249 v 0 c 0,-1.57942 1.28036,-2.85978 2.85978,-2.85978 h 12.51378 c 0.75846,0 1.48585,0.30129 2.02216,0.83761 0.53632,0.53631 0.83761,1.26371 0.83761,2.02217 v 11.43877 c 0,1.57941 -1.28036,2.85977 -2.85977,2.85977 h -12.51378 c -1.57942,0 -2.85978,-1.28036 -2.85978,-2.85977 z"
       fill-rule="evenodd"
       id="path1050"
       style="stroke:none;stroke-width:0.264583;stroke-linecap:square;stroke-miterlimit:10" />
    <path
       stroke="#1c1a45"
       stroke-width="0.264583"
       stroke-linejoin="round"
       stroke-linecap="butt"
       d="m 161.88616,116.70249 v 0 c 0,-1.57942 1.28036,-2.85978 2.85978,-2.85978 h 12.51378 c 0.75846,0 1.48585,0.30129 2.02216,0.83761 0.53632,0.53631 0.83761,1.26371 0.83761,2.02217 v 11.43877 c 0,1.57941 -1.28036,2.85977 -2.85977,2.85977 h -12.51378 c -1.57942,0 -2.85978,-1.28036 -2.85978,-2.85977 z"
       fill-rule="evenodd"
       id="path1052"
       style="fill:none;stroke-miterlimit:10" />
    <path
       fill="#000000"
       d="m 165.97734,121.38471 v -2.77399 h 0.339 v 0.99218 q 0.23978,-0.27285 0.60358,-0.27285 0.22324,0 0.38861,0.0868 0.16536,0.0868 0.23564,0.24391 0.0703,0.15296 0.0703,0.45062 v 1.27331 h -0.33899 v -1.27331 q 0,-0.25632 -0.11163,-0.37207 -0.11162,-0.11576 -0.31419,-0.11576 -0.15296,0 -0.28525,0.0785 -0.13229,0.0786 -0.19017,0.21498 -0.0579,0.13229 -0.0579,0.36793 v 1.09968 z m 2.9008,-0.30593 0.0496,0.30179 q -0.14469,0.0289 -0.26044,0.0289 -0.1819,0 -0.28526,-0.0579 -0.10335,-0.0579 -0.14469,-0.15296 -0.0413,-0.0951 -0.0413,-0.40101 v -1.15755 h -0.25218 v -0.26458 h 0.25218 v -0.50023 l 0.33899,-0.20257 v 0.7028 h 0.34314 v 0.26458 H 168.535 v 1.17409 q 0,0.14469 0.0165,0.19017 0.0207,0.0413 0.0579,0.0661 0.0413,0.0207 0.11989,0.0207 0.0537,0 0.14883,-0.0124 z m 0.1968,-0.29352 0.33486,-0.0537 q 0.0289,0.20257 0.1571,0.31006 0.13229,0.10748 0.3638,0.10748 0.23565,0 0.34727,-0.0951 0.11575,-0.0951 0.11575,-0.22325 0,-0.11575 -0.0992,-0.1819 -0.0703,-0.0455 -0.34727,-0.11575 -0.3762,-0.0951 -0.5209,-0.16123 -0.14469,-0.0703 -0.21911,-0.19431 -0.0744,-0.12402 -0.0744,-0.26871 0,-0.13643 0.0579,-0.24805 0.062,-0.11575 0.1695,-0.1943 0.0785,-0.0579 0.21497,-0.0951 0.14056,-0.0413 0.29766,-0.0413 0.23564,0 0.41341,0.0703 0.17777,0.0662 0.26458,0.1819 0.0868,0.11576 0.11576,0.31006 l -0.33073,0.0455 q -0.0248,-0.15297 -0.1323,-0.23978 -0.10748,-0.091 -0.30592,-0.091 -0.23564,0 -0.339,0.0786 -0.0992,0.0785 -0.0992,0.1819 0,0.0661 0.0414,0.11989 0.0413,0.0537 0.13229,0.0909 0.0496,0.0207 0.30179,0.0868 0.35967,0.0951 0.50023,0.1571 0.14469,0.062 0.22737,0.1819 0.0827,0.11576 0.0827,0.28939 0,0.1695 -0.0992,0.32246 -0.0992,0.14883 -0.28939,0.23151 -0.18604,0.0827 -0.42168,0.0827 -0.39274,0 -0.59945,-0.16123 -0.20257,-0.16536 -0.26045,-0.48369 z m 2.01332,0.76481 0.33072,0.0496 q 0.0207,0.15296 0.11576,0.22324 0.12402,0.0951 0.34727,0.0951 0.23564,0 0.3638,-0.0951 0.12816,-0.0951 0.17363,-0.26458 0.0289,-0.10335 0.0248,-0.43822 -0.22324,0.26459 -0.5581,0.26459 -0.41341,0 -0.64079,-0.29766 -0.22738,-0.30179 -0.22738,-0.71934 0,-0.28938 0.10335,-0.52916 0.10749,-0.24391 0.3018,-0.37621 0.19843,-0.13229 0.46715,-0.13229 0.35553,0 0.58704,0.28525 v -0.23977 h 0.3142 v 1.73632 q 0,0.47129 -0.0951,0.6656 -0.0951,0.1943 -0.30592,0.30592 -0.20671,0.11576 -0.5085,0.11576 -0.35966,0 -0.58291,-0.16123 -0.21911,-0.16123 -0.21084,-0.48783 z m 0.28112,-1.20716 q 0,0.39687 0.15709,0.57878 0.1571,0.1819 0.39274,0.1819 0.23565,0 0.39274,-0.1819 0.16123,-0.18191 0.16123,-0.56638 0,-0.36793 -0.16536,-0.55397 -0.16123,-0.19017 -0.39274,-0.19017 -0.22738,0 -0.38861,0.18604 -0.15709,0.1819 -0.15709,0.5457 z m 3.3142,0.39274 0.3514,0.0455 q -0.0827,0.31006 -0.31006,0.47955 -0.22324,0.1695 -0.57464,0.1695 -0.44235,0 -0.7028,-0.26872 -0.25632,-0.27285 -0.25632,-0.76481 0,-0.50849 0.26045,-0.78548 0.26459,-0.28112 0.68213,-0.28112 0.40101,0 0.65733,0.27285 0.25631,0.27286 0.25631,0.77308 0,0.0289 -0.004,0.091 h -1.49654 q 0.0165,0.33073 0.18603,0.5085 0.1695,0.17363 0.42168,0.17363 0.18604,0 0.31833,-0.0951 0.13229,-0.0992 0.21084,-0.31833 z m -1.12035,-0.54984 h 1.12448 q -0.0248,-0.25218 -0.12815,-0.38034 -0.16537,-0.19843 -0.42582,-0.19843 -0.23151,0 -0.39274,0.15709 -0.16123,0.1571 -0.17777,0.42168 z m 2.64446,0.89297 0.0496,0.30179 q -0.14469,0.0289 -0.26044,0.0289 -0.18191,0 -0.28526,-0.0579 -0.10335,-0.0579 -0.14469,-0.15296 -0.0413,-0.0951 -0.0413,-0.40101 v -1.15755 h -0.25219 v -0.26458 h 0.25219 v -0.50023 l 0.33899,-0.20257 v 0.7028 h 0.34313 v 0.26458 h -0.34313 v 1.17409 q 0,0.14469 0.0165,0.19017 0.0207,0.0413 0.0579,0.0661 0.0413,0.0207 0.11989,0.0207 0.0537,0 0.14882,-0.0124 z"
       fill-rule="nonzero"
       id="path1054"
       style="stroke:none;stroke-width:0.264583;stroke-linecap:square;stroke-miterlimit:10" />
    <path
       fill="#000000"
       d="m 165.73584,125.54776 0.33487,-0.0537 q 0.0289,0.20257 0.15709,0.31005 0.1323,0.10749 0.36381,0.10749 0.23564,0 0.34726,-0.0951 0.11576,-0.0951 0.11576,-0.22325 0,-0.11575 -0.0992,-0.1819 -0.0703,-0.0455 -0.34727,-0.11575 -0.3762,-0.0951 -0.5209,-0.16123 -0.14469,-0.0703 -0.21911,-0.19431 -0.0744,-0.12402 -0.0744,-0.26871 0,-0.13643 0.0579,-0.24805 0.062,-0.11576 0.1695,-0.1943 0.0786,-0.0579 0.21497,-0.0951 0.14056,-0.0413 0.29766,-0.0413 0.23564,0 0.41341,0.0703 0.17777,0.0662 0.26458,0.1819 0.0868,0.11576 0.11576,0.31006 l -0.33073,0.0455 q -0.0248,-0.15297 -0.13229,-0.23978 -0.10749,-0.0909 -0.30593,-0.0909 -0.23564,0 -0.33899,0.0785 -0.0992,0.0785 -0.0992,0.1819 0,0.0661 0.0413,0.1199 0.0413,0.0537 0.13229,0.0909 0.0496,0.0207 0.30179,0.0868 0.35967,0.0951 0.50023,0.1571 0.14469,0.062 0.22737,0.1819 0.0827,0.11575 0.0827,0.28939 0,0.1695 -0.0992,0.32246 -0.0992,0.14883 -0.28939,0.23151 -0.18604,0.0827 -0.42168,0.0827 -0.39274,0 -0.59945,-0.16123 -0.20257,-0.16536 -0.26045,-0.48369 z m 3.45199,-0.0496 0.3514,0.0455 q -0.0827,0.31005 -0.31006,0.47955 -0.22324,0.1695 -0.57464,0.1695 -0.44235,0 -0.7028,-0.26872 -0.25632,-0.27285 -0.25632,-0.76481 0,-0.50849 0.26045,-0.78548 0.26459,-0.28112 0.68213,-0.28112 0.40101,0 0.65733,0.27285 0.25631,0.27285 0.25631,0.77308 0,0.0289 -0.004,0.0909 h -1.49654 q 0.0165,0.33073 0.18603,0.5085 0.1695,0.17363 0.42168,0.17363 0.18604,0 0.31833,-0.0951 0.13229,-0.0992 0.21084,-0.31833 z m -1.12035,-0.54984 h 1.12448 q -0.0248,-0.25218 -0.12815,-0.38034 -0.16537,-0.19843 -0.42582,-0.19843 -0.23151,0 -0.39274,0.15709 -0.16123,0.1571 -0.17777,0.42168 z m 1.89619,1.1989 v -2.00918 h 0.30592 v 0.30179 q 0.11989,-0.21084 0.21911,-0.27699 0.0992,-0.0703 0.21498,-0.0703 0.17363,0 0.3514,0.10749 l -0.11576,0.31832 q -0.12402,-0.0744 -0.25218,-0.0744 -0.11162,0 -0.20257,0.0661 -0.0868,0.0661 -0.12402,0.18603 -0.0579,0.1819 -0.0579,0.39688 v 1.0542 z m 1.85358,0 -0.76481,-2.00918 h 0.35967 l 0.42995,1.20302 q 0.0703,0.19431 0.13229,0.40515 0.0413,-0.16123 0.12402,-0.38448 l 0.44649,-1.22369 h 0.3514 l -0.76068,2.00918 z m 2.75746,-0.64906 0.3514,0.0455 q -0.0827,0.31005 -0.31006,0.47955 -0.22324,0.1695 -0.57464,0.1695 -0.44235,0 -0.7028,-0.26872 -0.25632,-0.27285 -0.25632,-0.76481 0,-0.50849 0.26045,-0.78548 0.26459,-0.28112 0.68213,-0.28112 0.40101,0 0.65733,0.27285 0.25631,0.27285 0.25631,0.77308 0,0.0289 -0.004,0.0909 h -1.49655 q 0.0165,0.33073 0.18604,0.5085 0.1695,0.17363 0.42168,0.17363 0.18603,0 0.31833,-0.0951 0.13229,-0.0992 0.21084,-0.31833 z m -1.12035,-0.54984 h 1.12448 q -0.0248,-0.25218 -0.12815,-0.38034 -0.16537,-0.19843 -0.42582,-0.19843 -0.23151,0 -0.39274,0.15709 -0.16123,0.1571 -0.17777,0.42168 z m 1.89621,1.1989 v -2.00918 h 0.30592 v 0.30179 q 0.11989,-0.21084 0.21911,-0.27699 0.0992,-0.0703 0.21497,-0.0703 0.17364,0 0.3514,0.10749 l -0.11575,0.31832 q -0.12403,-0.0744 -0.25218,-0.0744 -0.11163,0 -0.20258,0.0661 -0.0868,0.0661 -0.12402,0.18603 -0.0579,0.1819 -0.0579,0.39688 v 1.0542 z"
       fill-rule="nonzero"
       id="path1056"
       style="stroke:none;stroke-width:0.264583;stroke-linecap:square;stroke-miterlimit:10" />
    <path
       fill="#dcdfed"
       d="m 106.85282,116.84311 v 0 c 0,-1.57941 1.28037,-2.85978 2.85979,-2.85978 h 12.51377 c 0.75847,0 1.48586,0.3013 2.02217,0.83761 0.53632,0.53631 0.83761,1.26371 0.83761,2.02217 v 11.43878 c 0,1.57941 -1.28037,2.85977 -2.85978,2.85977 h -12.51377 c -1.57942,0 -2.85979,-1.28036 -2.85979,-2.85977 z"
       fill-rule="evenodd"
       id="path1058"
       style="stroke:none;stroke-width:0.264583;stroke-linecap:square;stroke-miterlimit:10" />
    <path
       stroke="#1c1a45"
       stroke-width="0.264583"
       stroke-linejoin="round"
       stroke-linecap="butt"
       d="m 106.85282,116.84311 v 0 c 0,-1.57941 1.28037,-2.85978 2.85979,-2.85978 h 12.51377 c 0.75847,0 1.48586,0.3013 2.02217,0.83761 0.53632,0.53631 0.83761,1.26371 0.83761,2.02217 v 11.43878 c 0,1.57941 -1.28037,2.85977 -2.85978,2.85977 h -12.51377 c -1.57942,0 -2.85979,-1.28036 -2.85979,-2.85977 z"
       fill-rule="evenodd"
       id="path1060"
       style="fill:none;stroke-miterlimit:10" />
    <path
       fill="#000000"
       d="m 110.70251,125.68838 0.33486,-0.0537 q 0.0289,0.20257 0.1571,0.31006 0.13229,0.10749 0.3638,0.10749 0.23565,0 0.34727,-0.0951 0.11575,-0.0951 0.11575,-0.22324 0,-0.11575 -0.0992,-0.1819 -0.0703,-0.0455 -0.34727,-0.11576 -0.37621,-0.0951 -0.5209,-0.16123 -0.14469,-0.0703 -0.21911,-0.1943 -0.0744,-0.12402 -0.0744,-0.26872 0,-0.13642 0.0579,-0.24805 0.062,-0.11575 0.1695,-0.1943 0.0785,-0.0579 0.21497,-0.0951 0.14056,-0.0413 0.29766,-0.0413 0.23564,0 0.41341,0.0703 0.17776,0.0661 0.26458,0.1819 0.0868,0.11575 0.11576,0.31006 l -0.33073,0.0455 q -0.0248,-0.15296 -0.1323,-0.23978 -0.10748,-0.091 -0.30592,-0.091 -0.23565,0 -0.339,0.0786 -0.0992,0.0785 -0.0992,0.1819 0,0.0661 0.0414,0.11989 0.0413,0.0537 0.13229,0.0909 0.0496,0.0207 0.30179,0.0868 0.35967,0.0951 0.50023,0.15709 0.14469,0.062 0.22737,0.1819 0.0827,0.11576 0.0827,0.28939 0,0.1695 -0.0992,0.32246 -0.0992,0.14883 -0.28938,0.23151 -0.18604,0.0827 -0.42168,0.0827 -0.39274,0 -0.59945,-0.16123 -0.20257,-0.16537 -0.26045,-0.4837 z m 3.45199,-0.0496 0.3514,0.0455 q -0.0827,0.31006 -0.31006,0.47956 -0.22324,0.1695 -0.57464,0.1695 -0.44235,0 -0.7028,-0.26872 -0.25632,-0.27285 -0.25632,-0.76481 0,-0.5085 0.26045,-0.78548 0.26458,-0.28112 0.68213,-0.28112 0.40101,0 0.65732,0.27285 0.25632,0.27285 0.25632,0.77308 0,0.0289 -0.004,0.0909 h -1.49655 q 0.0165,0.33073 0.18604,0.50849 0.1695,0.17364 0.42168,0.17364 0.18603,0 0.31832,-0.0951 0.1323,-0.0992 0.21085,-0.31833 z m -1.12035,-0.54983 h 1.12448 q -0.0248,-0.25218 -0.12816,-0.38034 -0.16536,-0.19844 -0.42581,-0.19844 -0.23151,0 -0.39274,0.1571 -0.16123,0.1571 -0.17777,0.42168 z m 1.89619,1.19889 v -2.00918 h 0.30592 v 0.30179 q 0.11989,-0.21084 0.21911,-0.27698 0.0992,-0.0703 0.21497,-0.0703 0.17364,0 0.3514,0.10748 l -0.11575,0.31833 q -0.12402,-0.0744 -0.25218,-0.0744 -0.11162,0 -0.20257,0.0661 -0.0868,0.0661 -0.12403,0.18604 -0.0579,0.1819 -0.0579,0.39687 v 1.0542 z m 1.85358,0 -0.76481,-2.00918 h 0.35967 l 0.42995,1.20303 q 0.0703,0.1943 0.13229,0.40514 0.0413,-0.16123 0.12402,-0.38447 l 0.44649,-1.2237 h 0.3514 l -0.76068,2.00918 z m 2.75746,-0.64906 0.3514,0.0455 q -0.0827,0.31006 -0.31006,0.47956 -0.22324,0.1695 -0.57465,0.1695 -0.44234,0 -0.70279,-0.26872 -0.25632,-0.27285 -0.25632,-0.76481 0,-0.5085 0.26045,-0.78548 0.26458,-0.28112 0.68213,-0.28112 0.40101,0 0.65732,0.27285 0.25632,0.27285 0.25632,0.77308 0,0.0289 -0.004,0.0909 h -1.49655 q 0.0165,0.33073 0.18604,0.50849 0.1695,0.17364 0.42168,0.17364 0.18603,0 0.31832,-0.0951 0.1323,-0.0992 0.21084,-0.31833 z m -1.12035,-0.54983 h 1.12448 q -0.0248,-0.25218 -0.12816,-0.38034 -0.16536,-0.19844 -0.42581,-0.19844 -0.23151,0 -0.39274,0.1571 -0.16123,0.1571 -0.17777,0.42168 z m 1.8962,1.19889 v -2.00918 h 0.30593 v 0.30179 q 0.11989,-0.21084 0.21911,-0.27698 0.0992,-0.0703 0.21497,-0.0703 0.17363,0 0.3514,0.10748 l -0.11576,0.31833 q -0.12402,-0.0744 -0.25218,-0.0744 -0.11162,0 -0.20257,0.0661 -0.0868,0.0661 -0.12402,0.18604 -0.0579,0.1819 -0.0579,0.39687 v 1.0542 z"
       fill-rule="nonzero"
       id="path1064"
       style="stroke:none;stroke-width:0.264583;stroke-linecap:square;stroke-miterlimit:10" />
    <path
       fill="#000000"
       fill-opacity="0"
       d="m 104.12366,147.15069 c -3.29434,0 -4.941817,0.004 -6.588682,0.008 -1.64688,0.004 -3.29316,0.008 -6.586323,0.008"
       fill-rule="evenodd"
       id="path1066"
       style="stroke:none;stroke-width:0.264583;stroke-linecap:square;stroke-miterlimit:10" />
    <path
       stroke="#1c1a45"
       stroke-width="0.264583"
       stroke-linejoin="round"
       stroke-linecap="butt"
       d="m 102.53616,147.15121 -0.60019,1.9e-4 c -0.64345,5.3e-4 -1.2097,0.001 -1.72446,0.002 -1.029521,0.002 -1.853101,0.004 -2.676532,0.006 -0.823446,0.002 -1.646734,0.004 -2.675805,0.006 -0.514543,8e-4 -1.080521,0.001 -1.723699,0.002 l -0.599319,1.9e-4"
       fill-rule="evenodd"
       id="path1068"
       style="fill:none;stroke-miterlimit:10" />
    <path
       fill="#1c1a45"
       stroke="#1c1a45"
       stroke-width="0.264583"
       stroke-linecap="butt"
       d="m 102.5363,147.58823 1.20056,-0.43742 -1.20085,-0.43662 z"
       fill-rule="evenodd"
       id="path1070"
       style="stroke-miterlimit:10" />
    <path
       fill="#1c1a45"
       stroke="#1c1a45"
       stroke-width="0.264583"
       stroke-linecap="butt"
       d="m 92.53602,146.72982 -1.200565,0.43741 1.200849,0.43663 z"
       fill-rule="evenodd"
       id="path1072"
       style="stroke-miterlimit:10" />
    <path
       fill="#dcdfed"
       d="m 71.104559,142.07118 h 19.841668 v 10.15833 H 71.104559 Z"
       fill-rule="evenodd"
       id="path1074"
       style="stroke:none;stroke-width:0.264583;stroke-linecap:square;stroke-miterlimit:10" />
    <path
       stroke="#1c1a45"
       stroke-width="0.264583"
       stroke-linejoin="round"
       stroke-linecap="butt"
       d="m 71.104559,142.07118 h 19.841668 v 10.15833 H 71.104559 Z"
       fill-rule="evenodd"
       id="path1076"
       style="fill:none;stroke-miterlimit:10" />
    <path
       fill="#000000"
       d="m 77.26054,148.04282 0.425812,0.0579 q -0.07028,0.43822 -0.359666,0.6904 -0.285255,0.24805 -0.706935,0.24805 -0.525031,0 -0.843359,-0.34313 -0.318326,-0.34314 -0.318326,-0.98392 0,-0.41755 0.136425,-0.72761 0.136427,-0.31006 0.417546,-0.46302 0.28112,-0.1571 0.611849,-0.1571 0.417545,0 0.682128,0.21084 0.264583,0.21084 0.338997,0.59945 l -0.421679,0.062 q -0.06201,-0.25631 -0.214974,-0.38447 -0.152961,-0.13229 -0.367935,-0.13229 -0.326597,0 -0.533302,0.23564 -0.206706,0.23565 -0.206706,0.74414 0,0.51677 0.198437,0.75241 0.198438,0.23151 0.516766,0.23151 0.256315,0 0.425813,-0.15709 0.173632,-0.1571 0.219109,-0.48369 z m 0.785482,0.93844 v -3.53467 h 0.43408 v 3.53467 z m 1.109056,-3.03444 v -0.50023 h 0.434084 v 0.50023 z m 0,3.03444 v -2.55902 h 0.434084 v 2.55902 z m 2.849513,-0.82269 0.446484,0.0537 q -0.107487,0.39274 -0.392742,0.61185 -0.285253,0.21498 -0.731737,0.21498 -0.56224,0 -0.892969,-0.34313 -0.326596,-0.34727 -0.326596,-0.97152 0,-0.64906 0.330729,-1.00459 0.334864,-0.35554 0.864031,-0.35554 0.51263,0 0.835091,0.3514 0.326594,0.34727 0.326594,0.97979 0,0.0413 0,0.11575 h -1.909961 q 0.02479,0.42168 0.239779,0.64906 0.214974,0.22324 0.533302,0.22324 0.239778,0 0.409276,-0.12402 0.1695,-0.12816 0.268719,-0.40101 z m -1.426271,-0.7028 h 1.430403 q -0.02894,-0.32246 -0.165364,-0.48369 -0.206706,-0.25218 -0.537435,-0.25218 -0.297656,0 -0.504362,0.20257 -0.20257,0.19844 -0.223242,0.5333 z m 2.418651,1.52549 v -2.55902 h 0.388607 v 0.3638 q 0.28112,-0.42168 0.814419,-0.42168 0.231511,0 0.425815,0.0827 0.194302,0.0827 0.289388,0.2191 0.09922,0.1323 0.136425,0.31833 0.02479,0.11989 0.02479,0.42168 v 1.5751 h -0.43408 v -1.55856 q 0,-0.26459 -0.05375,-0.39274 -0.04961,-0.1323 -0.177766,-0.21084 -0.128159,-0.0786 -0.301792,-0.0786 -0.276984,0 -0.479557,0.17777 -0.198437,0.17363 -0.198437,0.66559 v 1.39733 z m 3.691951,-0.38861 0.06201,0.38448 q -0.181901,0.0372 -0.326593,0.0372 -0.235646,0 -0.367938,-0.0744 -0.128156,-0.0744 -0.181901,-0.19431 -0.05374,-0.12402 -0.05374,-0.51263 v -1.47589 h -0.31833 v -0.33486 h 0.318328 v -0.63252 l 0.429948,-0.26045 v 0.89297 h 0.438216 v 0.33486 h -0.438216 v 1.50069 q 0,0.1819 0.02066,0.23564 0.02479,0.0538 0.07441,0.0868 0.05375,0.0289 0.152963,0.0289 0.07028,0 0.19017,-0.0165 z"
       fill-rule="nonzero"
       id="path1078"
       style="stroke:none;stroke-width:0.264583;stroke-linecap:square;stroke-miterlimit:10" />
    <path
       fill="#000000"
       fill-opacity="0"
       d="m 154.56429,122.39617 c 1.83047,0 2.74534,0.006 3.66097,0.0125 0.91562,0.006 1.83201,0.0125 3.66403,0.0125"
       fill-rule="evenodd"
       id="path1080"
       style="stroke:none;stroke-width:0.264583;stroke-linecap:square;stroke-miterlimit:10" />
    <path
       stroke="#1c1a45"
       stroke-width="0.264583"
       stroke-linejoin="round"
       stroke-linecap="butt"
       d="m 154.56429,122.39617 c 1.83049,0 2.74534,0.006 3.66097,0.0125 0.4578,0.003 0.91582,0.006 1.48836,0.009 l 0.58817,0.002"
       fill-rule="evenodd"
       id="path1082"
       style="fill:none;stroke-miterlimit:10" />
    <path
       fill="#1c1a45"
       stroke="#1c1a45"
       stroke-width="0.264583"
       stroke-linecap="butt"
       d="m 160.3012,122.85603 1.20129,-0.43538 -1.2001,-0.43866 z"
       fill-rule="evenodd"
       id="path1084"
       style="stroke-miterlimit:10" />
    <path
       fill="#000000"
       fill-opacity="0"
       d="m 127.81534,147.15069 c 21.59582,0 43.19166,-8.075 43.19166,-16.15"
       fill-rule="evenodd"
       id="path1086"
       style="stroke:none;stroke-width:0.264583;stroke-linecap:square;stroke-miterlimit:10" />
    <path
       stroke="#1c1a45"
       stroke-width="0.264583"
       stroke-linejoin="round"
       stroke-linecap="butt"
       stroke-dasharray="4, 3"
       d="m 129.40276,147.13609 0.43652,-0.009 c 0.67421,-0.0155 1.34777,-0.0387 2.02,-0.0692 1.34446,-0.0611 2.68365,-0.1518 4.01232,-0.27008 2.6573,-0.23658 5.27241,-0.58355 7.80317,-1.02516 5.06153,-0.88319 9.78561,-2.14492 13.83483,-3.65898 8.09844,-3.02813 13.4974,-7.06562 13.4974,-11.10312"
       fill-rule="evenodd"
       id="path1088"
       style="fill:none;stroke-miterlimit:10" />
    <path
       fill="#1c1a45"
       stroke="#1c1a45"
       stroke-width="0.264583"
       stroke-linecap="butt"
       d="m 129.39874,146.69908 -1.19664,0.44805 1.20468,0.42596 z"
       fill-rule="evenodd"
       id="path1090"
       style="stroke-miterlimit:10" />
    <path
       fill="#dcdfed"
       d="m 104.12366,141.4313 v 0 c 0,-1.57941 1.28036,-2.85978 2.85977,-2.85978 h 17.97211 c 0.75847,0 1.48586,0.3013 2.02218,0.83761 0.53631,0.53631 0.83761,1.26371 0.83761,2.02217 v 11.43877 c 0,1.57942 -1.28038,2.85979 -2.85979,2.85979 h -17.97211 c -1.57941,0 -2.85977,-1.28037 -2.85977,-2.85979 z"
       fill-rule="evenodd"
       id="path1092"
       style="stroke:none;stroke-width:0.264583;stroke-linecap:square;stroke-miterlimit:10" />
    <path
       stroke="#1c1a45"
       stroke-width="0.264583"
       stroke-linejoin="round"
       stroke-linecap="butt"
       d="m 104.12366,141.4313 v 0 c 0,-1.57941 1.28036,-2.85978 2.85977,-2.85978 h 17.97211 c 0.75847,0 1.48586,0.3013 2.02218,0.83761 0.53631,0.53631 0.83761,1.26371 0.83761,2.02217 v 11.43877 c 0,1.57942 -1.28038,2.85979 -2.85979,2.85979 h -17.97211 c -1.57941,0 -2.85977,-1.28037 -2.85977,-2.85979 z"
       fill-rule="evenodd"
       id="path1094"
       style="fill:none;stroke-miterlimit:10" />
    <path
       fill="#000000"
       d="m 109.75647,146.11352 v -2.00918 h 0.30592 v 0.30179 q 0.11989,-0.21084 0.21911,-0.27698 0.0992,-0.0703 0.21497,-0.0703 0.17363,0 0.3514,0.10748 l -0.11575,0.31833 q -0.12403,-0.0744 -0.25219,-0.0744 -0.11161,0 -0.20257,0.0661 -0.0868,0.0662 -0.12402,0.18604 -0.0579,0.1819 -0.0579,0.39687 v 1.0542 z m 2.67212,-0.64905 0.3514,0.0455 q -0.0827,0.31006 -0.31006,0.47956 -0.22324,0.1695 -0.57464,0.1695 -0.44235,0 -0.7028,-0.26872 -0.25632,-0.27285 -0.25632,-0.76481 0,-0.5085 0.26045,-0.78548 0.26459,-0.28112 0.68213,-0.28112 0.40101,0 0.65733,0.27285 0.25631,0.27285 0.25631,0.77308 0,0.0289 -0.004,0.0909 h -1.49655 q 0.0165,0.33073 0.18603,0.5085 0.1695,0.17363 0.42168,0.17363 0.18604,0 0.31833,-0.0951 0.13229,-0.0992 0.21084,-0.31832 z m -1.12035,-0.54984 h 1.12448 q -0.0248,-0.25218 -0.12815,-0.38034 -0.16537,-0.19844 -0.42582,-0.19844 -0.23151,0 -0.39274,0.1571 -0.16123,0.1571 -0.17777,0.42168 z m 2.45845,1.19889 -0.76482,-2.00918 h 0.35967 l 0.42995,1.20303 q 0.0703,0.1943 0.13229,0.40514 0.0413,-0.16123 0.12403,-0.38447 l 0.44648,-1.2237 h 0.3514 l -0.76068,2.00918 z m 2.75745,-0.64905 0.3514,0.0455 q -0.0827,0.31006 -0.31006,0.47956 -0.22324,0.1695 -0.57464,0.1695 -0.44235,0 -0.7028,-0.26872 -0.25631,-0.27285 -0.25631,-0.76481 0,-0.5085 0.26044,-0.78548 0.26459,-0.28112 0.68213,-0.28112 0.40101,0 0.65733,0.27285 0.25631,0.27285 0.25631,0.77308 0,0.0289 -0.004,0.0909 h -1.49654 q 0.0165,0.33073 0.18603,0.5085 0.1695,0.17363 0.42168,0.17363 0.18604,0 0.31833,-0.0951 0.13229,-0.0992 0.21084,-0.31832 z m -1.12034,-0.54984 h 1.12448 q -0.0248,-0.25218 -0.12816,-0.38034 -0.16537,-0.19844 -0.42582,-0.19844 -0.23151,0 -0.39274,0.1571 -0.16123,0.1571 -0.17776,0.42168 z m 1.8962,1.19889 v -2.00918 h 0.30592 v 0.30179 q 0.11989,-0.21084 0.21911,-0.27698 0.0992,-0.0703 0.21497,-0.0703 0.17364,0 0.35141,0.10748 l -0.11576,0.31833 q -0.12402,-0.0744 -0.25218,-0.0744 -0.11162,0 -0.20257,0.0661 -0.0868,0.0662 -0.12403,0.18604 -0.0579,0.1819 -0.0579,0.39687 v 1.0542 z m 1.15904,-0.59944 0.33486,-0.0538 q 0.0289,0.20257 0.1571,0.31006 0.13229,0.10749 0.3638,0.10749 0.23564,0 0.34726,-0.0951 0.11576,-0.0951 0.11576,-0.22324 0,-0.11575 -0.0992,-0.1819 -0.0703,-0.0455 -0.34727,-0.11575 -0.3762,-0.0951 -0.52089,-0.16124 -0.1447,-0.0703 -0.21911,-0.1943 -0.0744,-0.12402 -0.0744,-0.26872 0,-0.13642 0.0579,-0.24804 0.062,-0.11576 0.1695,-0.19431 0.0785,-0.0579 0.21497,-0.0951 0.14056,-0.0413 0.29766,-0.0413 0.23564,0 0.41341,0.0703 0.17777,0.0661 0.26459,0.1819 0.0868,0.11576 0.11575,0.31006 l -0.33073,0.0455 q -0.0248,-0.15296 -0.13229,-0.23977 -0.10749,-0.091 -0.30592,-0.091 -0.23565,0 -0.339,0.0786 -0.0992,0.0786 -0.0992,0.1819 0,0.0661 0.0413,0.11989 0.0413,0.0537 0.13229,0.0909 0.0496,0.0207 0.30179,0.0868 0.35967,0.0951 0.50023,0.1571 0.14469,0.062 0.22738,0.1819 0.0827,0.11575 0.0827,0.28938 0,0.1695 -0.0992,0.32247 -0.0992,0.14882 -0.28939,0.23151 -0.18603,0.0827 -0.42168,0.0827 -0.39274,0 -0.59944,-0.16123 -0.20258,-0.16537 -0.26045,-0.48369 z m 3.45198,-0.0496 0.3514,0.0455 q -0.0827,0.31006 -0.31006,0.47956 -0.22324,0.1695 -0.57464,0.1695 -0.44235,0 -0.7028,-0.26872 -0.25631,-0.27285 -0.25631,-0.76481 0,-0.5085 0.26045,-0.78548 0.26458,-0.28112 0.68212,-0.28112 0.40101,0 0.65733,0.27285 0.25631,0.27285 0.25631,0.77308 0,0.0289 -0.004,0.0909 h -1.49655 q 0.0165,0.33073 0.18603,0.5085 0.1695,0.17363 0.42168,0.17363 0.18604,0 0.31833,-0.0951 0.13229,-0.0992 0.21084,-0.31832 z m -1.12034,-0.54984 h 1.12447 q -0.0248,-0.25218 -0.12815,-0.38034 -0.16537,-0.19844 -0.42582,-0.19844 -0.23151,0 -0.39274,0.1571 -0.16123,0.1571 -0.17776,0.42168 z"
       fill-rule="nonzero"
       id="path1096"
       style="stroke:none;stroke-width:0.264583;stroke-linecap:square;stroke-miterlimit:10" />
    <path
       fill="#000000"
       d="m 111.48459,151.64497 v -2.77812 h 0.31006 v 0.26045 q 0.11162,-0.15296 0.24805,-0.22738 0.13642,-0.0786 0.33486,-0.0786 0.25632,0 0.45475,0.13229 0.19844,0.1323 0.29766,0.37621 0.0992,0.23978 0.0992,0.52503 0,0.31006 -0.11162,0.55811 -0.10749,0.24391 -0.32246,0.3762 -0.21084,0.13229 -0.44235,0.13229 -0.1695,0 -0.30593,-0.0703 -0.13643,-0.0744 -0.22324,-0.1819 v 0.97565 z m 0.30593,-1.76113 q 0,0.38447 0.15709,0.57051 0.16123,0.18603 0.38447,0.18603 0.22738,0 0.38861,-0.19017 0.16123,-0.1943 0.16123,-0.59531 0,-0.38447 -0.16123,-0.57464 -0.1571,-0.1943 -0.3762,-0.1943 -0.21498,0 -0.38448,0.2067 -0.16949,0.20257 -0.16949,0.59118 z m 1.84659,0.99219 v -2.00918 h 0.30592 v 0.30179 q 0.11989,-0.21084 0.21911,-0.27699 0.0992,-0.0703 0.21498,-0.0703 0.17363,0 0.3514,0.10749 l -0.11576,0.31833 q -0.12402,-0.0744 -0.25218,-0.0744 -0.11162,0 -0.20257,0.0661 -0.0868,0.0661 -0.12403,0.18603 -0.0579,0.1819 -0.0579,0.39688 v 1.0542 z m 1.1673,-1.00459 q 0,-0.55811 0.31006,-0.82682 0.26045,-0.22325 0.63252,-0.22325 0.41755,0 0.678,0.27285 0.26458,0.26872 0.26458,0.74828 0,0.38861 -0.11575,0.61185 -0.11576,0.21911 -0.339,0.34313 -0.22324,0.12402 -0.48783,0.12402 -0.42168,0 -0.68212,-0.26871 -0.26046,-0.27285 -0.26046,-0.78135 z m 0.35141,0 q 0,0.38447 0.16536,0.57877 0.1695,0.19017 0.42581,0.19017 0.25632,0 0.42168,-0.19017 0.1695,-0.1943 0.1695,-0.59117 0,-0.37207 -0.1695,-0.56224 -0.1695,-0.19431 -0.42168,-0.19431 -0.25631,0 -0.42581,0.19017 -0.16536,0.19017 -0.16536,0.57878 z m 1.70603,1.00459 0.73587,-1.04593 -0.68213,-0.96325 h 0.42582 l 0.31005,0.47129 q 0.0868,0.13229 0.14056,0.22324 0.0827,-0.12402 0.15297,-0.21911 l 0.33899,-0.47542 h 0.40515 l -0.69453,0.94671 0.74827,1.06247 h -0.41754 l -0.41342,-0.62425 -0.10748,-0.1695 -0.52917,0.79375 z m 2.14974,0.77308 -0.0372,-0.31833 q 0.11162,0.0289 0.1943,0.0289 0.11576,0 0.18191,-0.0372 0.0703,-0.0372 0.11162,-0.10748 0.0331,-0.0496 0.10335,-0.25219 0.0124,-0.0289 0.0331,-0.0827 l -0.76481,-2.01331 h 0.36794 l 0.41754,1.16168 q 0.0827,0.22325 0.1447,0.46716 0.062,-0.23565 0.14056,-0.45889 l 0.42995,-1.16995 h 0.34313 l -0.76481,2.04225 q -0.12403,0.33073 -0.19431,0.45889 -0.0909,0.16536 -0.20671,0.24391 -0.11575,0.0786 -0.28111,0.0786 -0.0992,0 -0.21911,-0.0413 z"
       fill-rule="nonzero"
       id="path1098"
       style="stroke:none;stroke-width:0.264583;stroke-linecap:square;stroke-miterlimit:10" />
    <path
       fill="#000000"
       fill-opacity="0"
       d="m 134.6115,122.39617 c -2.38134,0 -3.57206,0.0417 -4.76269,0.0833 -1.19062,0.0417 -2.38115,0.0833 -4.76231,0.0833"
       fill-rule="evenodd"
       id="path1100"
       style="stroke:none;stroke-width:0.264583;stroke-linecap:square;stroke-miterlimit:10" />
    <path
       stroke="#1c1a45"
       stroke-width="0.264583"
       stroke-linejoin="round"
       stroke-linecap="butt"
       d="m 133.02403,122.40342 -0.65203,0.008 c -0.20696,0.003 -0.40231,0.007 -0.58835,0.0107 -0.74419,0.0156 -1.33952,0.0365 -1.93483,0.0573 -0.59531,0.0208 -1.19061,0.0417 -1.9347,0.0573 -0.18603,0.004 -0.38137,0.007 -0.58832,0.0107 l -0.65182,0.008"
       fill-rule="evenodd"
       id="path1102"
       style="fill:none;stroke-miterlimit:10" />
    <path
       fill="#1c1a45"
       stroke="#1c1a45"
       stroke-width="0.264583"
       stroke-linecap="butt"
       d="m 133.02601,122.84043 1.1987,-0.44249 -1.20269,-0.43154 z"
       fill-rule="evenodd"
       id="path1104"
       style="stroke-miterlimit:10" />
    <path
       fill="#1c1a45"
       stroke="#1c1a45"
       stroke-width="0.264583"
       stroke-linecap="butt"
       d="m 126.67199,122.11859 -1.1987,0.44249 1.20269,0.43154 z"
       fill-rule="evenodd"
       id="path1106"
       style="stroke-miterlimit:10" />
    <path
       fill="#000000"
       fill-opacity="0"
       d="m 127.81534,147.15069 c 8.38748,0 16.77499,-7.63333 16.77499,-15.26667"
       fill-rule="evenodd"
       id="path1108"
       style="stroke:none;stroke-width:0.264583;stroke-linecap:square;stroke-miterlimit:10" />
    <path
       stroke="#1c1a45"
       stroke-width="0.264583"
       stroke-linejoin="round"
       stroke-linecap="butt"
       d="m 129.40032,147.06141 0.18133,-0.0213 c 0.0652,-0.008 0.13037,-0.0166 0.1955,-0.0256 0.13026,-0.0179 0.26035,-0.0375 0.39025,-0.0589 0.25981,-0.0426 0.51885,-0.092 0.77686,-0.14792 1.03204,-0.22364 2.04773,-0.55163 3.03063,-0.96908 1.96582,-0.8349 3.80059,-2.0276 5.37325,-3.45886 1.57266,-1.43125 2.88321,-3.10103 3.80059,-4.8901 0.4587,-0.89453 0.81909,-1.81888 1.06481,-2.75814 0.0615,-0.23481 0.11569,-0.47056 0.16256,-0.707 0.0234,-0.11822 0.045,-0.23663 0.0646,-0.35517 0.01,-0.0593 0.0192,-0.11857 0.0281,-0.17792 l 0.003,-0.0244"
       fill-rule="evenodd"
       id="path1110"
       style="fill:none;stroke-miterlimit:10" />
    <path
       fill="#1c1a45"
       stroke="#1c1a45"
       stroke-width="0.264583"
       stroke-linecap="butt"
       d="m 129.37574,146.62508 -1.17423,0.50386 1.22339,0.3688 z"
       fill-rule="evenodd"
       id="path1112"
       style="stroke-miterlimit:10" />
    <path
       fill="#1c1a45"
       stroke="#1c1a45"
       stroke-width="0.264583"
       stroke-linecap="butt"
       d="m 144.90811,133.49962 -0.34654,-1.22987 -0.52508,1.16489 z"
       fill-rule="evenodd"
       id="path1114"
       style="stroke-miterlimit:10" />
    <path
       fill="#000000"
       fill-opacity="0"
       d="m 115.96949,131.14166 c 0,1.85749 0.004,2.7858 0.008,3.71496 0.004,0.92917 0.008,1.85919 0.008,3.71838"
       fill-rule="evenodd"
       id="path1116"
       style="stroke:none;stroke-width:0.264583;stroke-linecap:square;stroke-miterlimit:10" />
    <path
       stroke="#1c1a45"
       stroke-width="0.264583"
       stroke-linejoin="round"
       stroke-linecap="butt"
       d="m 115.97089,132.72916 0.001,0.6181 c 0.002,0.58041 0.004,1.04478 0.006,1.50936 0.002,0.46458 0.004,0.92938 0.006,1.51043 l 10e-4,0.62045"
       fill-rule="evenodd"
       id="path1118"
       style="fill:none;stroke-miterlimit:10" />
    <path
       fill="#1c1a45"
       stroke="#1c1a45"
       stroke-width="0.264583"
       stroke-linecap="butt"
       d="m 116.40792,132.72877 -0.43808,-1.20031 -0.43596,1.20109 z"
       fill-rule="evenodd"
       id="path1120"
       style="stroke-miterlimit:10" />
    <path
       fill="#1c1a45"
       stroke="#1c1a45"
       stroke-width="0.264583"
       stroke-linecap="butt"
       d="m 115.54774,136.98788 0.43808,1.20032 0.43596,-1.20109 z"
       fill-rule="evenodd"
       id="path1122"
       style="stroke-miterlimit:10" />
    <path
       fill="#dcdfed"
       d="m 96.281475,101.8625 h 18.233335 v 10.25833 H 96.281475 Z"
       fill-rule="evenodd"
       id="path1124"
       style="stroke:none;stroke-width:0.264583;stroke-linecap:square;stroke-miterlimit:10" />
    <path
       fill="#000000"
       d="m 98.795017,107.65042 0.367935,-0.0579 q 0.02894,0.22325 0.1695,0.34313 0.144692,0.11576 0.396875,0.11576 0.256315,0 0.380343,-0.10335 0.12402,-0.10749 0.12402,-0.24805 0,-0.12402 -0.10749,-0.19844 -0.0785,-0.0496 -0.380337,-0.12402 -0.409278,-0.10335 -0.570508,-0.17777 -0.157096,-0.0785 -0.239778,-0.21084 -0.07855,-0.13229 -0.07855,-0.29352 0,-0.14883 0.06615,-0.27285 0.06615,-0.12403 0.181901,-0.20671 0.08682,-0.0661 0.235646,-0.10749 0.152961,-0.0455 0.322461,-0.0455 0.260448,0 0.454745,0.0744 0.19431,0.0744 0.28526,0.20258 0.0951,0.12402 0.13229,0.33899 l -0.3638,0.0496 q -0.0248,-0.1695 -0.1447,-0.26458 -0.119884,-0.0951 -0.334858,-0.0951 -0.256315,0 -0.367934,0.0868 -0.107487,0.0827 -0.107487,0.19431 0,0.0744 0.04547,0.13229 0.04548,0.0579 0.140559,0.0992 0.05788,0.0207 0.33073,0.0951 0.39274,0.10335 0.54984,0.17363 0.15709,0.0662 0.24391,0.19431 0.091,0.12815 0.091,0.31832 0,0.18604 -0.11162,0.3514 -0.10749,0.16123 -0.31419,0.25218 -0.202575,0.0909 -0.45889,0.0909 -0.429948,0 -0.653191,-0.17776 -0.223242,-0.17777 -0.285252,-0.52917 z m 3.766173,-0.0496 0.38448,0.0455 q -0.091,0.33899 -0.339,0.52503 -0.24391,0.18603 -0.62425,0.18603 -0.48369,0 -0.76481,-0.29765 -0.28112,-0.29766 -0.28112,-0.83096 0,-0.55397 0.28525,-0.85989 0.28526,-0.30593 0.74001,-0.30593 0.43821,0 0.7152,0.30179 0.28112,0.29766 0.28112,0.83923 0,0.0331 0,0.0992 h -1.63711 q 0.0207,0.3638 0.20257,0.5581 0.18604,0.19017 0.45889,0.19017 0.2067,0 0.3514,-0.10749 0.14469,-0.10749 0.22737,-0.34313 z m -1.21956,-0.60358 h 1.2237 q -0.0248,-0.27699 -0.14056,-0.41341 -0.17777,-0.21497 -0.45889,-0.21497 -0.25631,0 -0.43408,0.17363 -0.17363,0.1695 -0.19017,0.45475 z m 2.06913,1.31051 v -2.19521 h 0.33486 v 0.33073 q 0.12816,-0.23151 0.23564,-0.30593 0.10749,-0.0744 0.23978,-0.0744 0.18604,0 0.38034,0.11989 l -0.12816,0.34313 q -0.13642,-0.0786 -0.27285,-0.0786 -0.11989,0 -0.21911,0.0744 -0.0951,0.0703 -0.13642,0.20257 -0.062,0.19844 -0.062,0.43408 v 1.14928 z m 2.02158,0 -0.83509,-2.19521 h 0.39274 l 0.47129,1.31465 q 0.0785,0.21084 0.14056,0.44235 0.0496,-0.17364 0.14056,-0.41755 l 0.48782,-1.33945 h 0.38034 l -0.83096,2.19521 z m 3.00963,-0.70693 0.38448,0.0455 q -0.091,0.33899 -0.339,0.52503 -0.24391,0.18603 -0.62425,0.18603 -0.48369,0 -0.76481,-0.29765 -0.28112,-0.29766 -0.28112,-0.83096 0,-0.55397 0.28525,-0.85989 0.28525,-0.30593 0.74001,-0.30593 0.43821,0 0.7152,0.30179 0.28112,0.29766 0.28112,0.83923 0,0.0331 0,0.0992 h -1.63711 q 0.0207,0.3638 0.20257,0.5581 0.18604,0.19017 0.45889,0.19017 0.2067,0 0.3514,-0.10749 0.14469,-0.10749 0.22737,-0.34313 z m -1.21956,-0.60358 h 1.2237 q -0.0248,-0.27699 -0.14056,-0.41341 -0.17777,-0.21497 -0.45889,-0.21497 -0.25631,0 -0.43408,0.17363 -0.17363,0.1695 -0.19017,0.45475 z m 2.06912,1.31051 v -2.19521 h 0.33487 v 0.33073 q 0.12815,-0.23151 0.23564,-0.30593 0.10749,-0.0744 0.23978,-0.0744 0.18604,0 0.38034,0.11989 l -0.12816,0.34313 q -0.13643,-0.0786 -0.27285,-0.0786 -0.11989,0 -0.21911,0.0744 -0.0951,0.0703 -0.13642,0.20257 -0.062,0.19844 -0.062,0.43408 v 1.14928 z"
       fill-rule="nonzero"
       id="path1126"
       style="stroke:none;stroke-width:0.264583;stroke-linecap:square;stroke-miterlimit:10" />
    <text
       xml:space="preserve"
       style="font-style:normal;font-weight:normal;font-size:3.4477px;line-height:1.25;font-family:sans-serif;letter-spacing:0px;word-spacing:0px;fill:#000000;fill-opacity:1;stroke:none;stroke-width:0.0861925"
       x="110.20222"
       y="121.51038"
       id="text4021"><tspan
         sodipodi:role="line"
         id="tspan4019"
         style="stroke-width:0.0861925"
         x="110.20222"
         y="121.51038">modos</tspan></text>
  </g>
</svg>
