<?xml version="1.0" encoding="UTF-8" standalone="no"?>
<!-- Created with Inkscape (http://www.inkscape.org/) -->

<svg
   width="124.68079mm"
   height="123.80197mm"
   viewBox="0 0 124.68079 123.80197"
   version="1.1"
   id="svg5"
   inkscape:version="1.1.2 (0a00cf5339, 2022-02-04)"
   sodipodi:docname="multiomics.svg"
   xmlns:inkscape="http://www.inkscape.org/namespaces/inkscape"
   xmlns:sodipodi="http://sodipodi.sourceforge.net/DTD/sodipodi-0.dtd"
   xmlns="http://www.w3.org/2000/svg"
   xmlns:svg="http://www.w3.org/2000/svg">
  <sodipodi:namedview
     id="namedview7"
     pagecolor="#ffffff"
     bordercolor="#666666"
     borderopacity="1.0"
     inkscape:pageshadow="2"
     inkscape:pageopacity="0.0"
     inkscape:pagecheckerboard="0"
     inkscape:document-units="mm"
     showgrid="false"
     showguides="true"
     inkscape:guide-bbox="true"
     inkscape:zoom="1.4142136"
     inkscape:cx="271.529"
     inkscape:cy="238.29498"
     inkscape:window-width="2560"
     inkscape:window-height="1360"
     inkscape:window-x="0"
     inkscape:window-y="0"
     inkscape:window-maximized="1"
     inkscape:current-layer="layer1"
     fit-margin-top="0"
     fit-margin-left="0"
     fit-margin-right="0"
     fit-margin-bottom="0">
    <sodipodi:guide
       position="121.0807,115.9964"
       orientation="1,0"
       id="guide14043" />
    <sodipodi:guide
       position="3.5890173,95.042473"
       orientation="1,0"
       id="guide14045" />
  </sodipodi:namedview>
  <defs
     id="defs2" />
  <g
     inkscape:label="Layer 1"
     inkscape:groupmode="layer"
     id="layer1"
     transform="translate(-24.848459,-70.210404)">
    <path
       id="path1339"
       style="fill:#efb4b4;fill-opacity:1;stroke:#151337;stroke-width:1.1966;stroke-linecap:round;stroke-miterlimit:4;stroke-dasharray:none;stroke-opacity:1"
       sodipodi:type="inkscape:offset"
       inkscape:radius="6.3969011"
       inkscape:original="M 24.796875 69.451172 L 24.796875 126.50391 L 82.75 126.50391 L 82.75 69.451172 L 24.796875 69.451172 z "
       d="m 24.796875,63.054688 a 6.3975408,6.3975408 0 0 0 -6.396484,6.396484 v 57.052738 a 6.3975408,6.3975408 0 0 0 6.396484,6.39648 H 82.75 a 6.3975408,6.3975408 0 0 0 6.396484,-6.39648 V 69.451172 A 6.3975408,6.3975408 0 0 0 82.75,63.054688 Z"
       transform="matrix(0.83569917,0,0,0.83569917,74.529606,82.447629)" />
    <path
       d="m 125.57213,126.48295 c -0.84846,-0.70888 -2.54846,-2.00657 -3.77775,-2.88377 -2.15344,-1.53668 -2.28393,-1.58026 -3.57383,-1.19379 -1.80081,0.53952 -3.07403,1.59721 -3.92081,3.25698 -1.16385,2.28134 -2.0965,1.70569 -1.04425,-0.64456 0.64129,-1.43242 3.12766,-3.62212 4.11284,-3.62212 0.69143,0 0.62304,-0.12294 -0.93491,-1.68089 -1.11805,-1.11807 -1.4111,-1.67205 -1.4111,-2.66766 0,-1.89382 1.11234,-2.88194 6.17321,-5.48381 2.50168,-1.28616 4.6995,-2.59172 4.88405,-2.90124 0.75911,-1.2732 -0.049,-2.36099 -3.30759,-4.45246 -1.74842,-1.12218 -3.91668,-2.51658 -4.8184,-3.09867 -2.45192,-1.582791 -3.70451,-3.330713 -3.90853,-5.454161 -0.13666,-1.422045 -0.0648,-1.77778 0.35911,-1.77778 0.3007,0 0.61715,0.435943 0.73152,1.00779 0.17841,0.89213 0.39156,1.03383 1.85722,1.23472 0.91062,0.12481 3.02257,0.253979 4.69323,0.287039 l 3.03758,0.0601 -3.88057,0.24779 c -2.13428,0.136279 -4.16396,0.267981 -4.51032,0.292669 -0.51776,0.0369 -0.56261,0.17036 -0.25218,0.750432 0.33859,0.632659 0.73867,0.705559 3.87215,0.705559 1.94916,0 3.59098,0.156009 3.71259,0.35278 0.1389,0.224761 -0.88522,0.35278 -2.82224,0.35278 -1.67214,0 -2.95888,0.131611 -2.85948,0.292481 0.0994,0.160869 1.1493,0.890291 2.33304,1.620941 1.56573,0.96642 2.38562,1.26988 3.00858,1.11353 1.29966,-0.3262 3.24657,-2.208051 3.69729,-3.573751 0.40174,-1.217261 1.40531,-1.69849 1.40531,-0.67387 0,1.020868 -1.38915,3.267861 -2.67611,4.328671 l -1.28545,1.05959 1.62798,1.5599 c 1.3429,1.28672 1.62801,1.78147 1.62801,2.82511 0,1.06502 -0.26514,1.50101 -1.67568,2.75552 -0.9433,0.83893 -1.49069,1.55616 -1.25244,1.64098 0.9837,0.35016 2.29204,1.67904 2.97919,3.02601 0.57528,1.12761 0.6917,1.82666 0.53067,3.18627 -0.25794,2.17782 -0.90482,3.18533 -2.40649,3.74799 -0.64564,0.2419 -1.47394,0.55236 -1.84073,0.6899 -0.56394,0.21147 -0.3029,0.53969 1.69095,2.12623 2.19818,1.74916 0.67281,2.29563 -0.17566,1.58676 z m -0.043,-5.28507 c 1.69701,-1.18862 2.28182,-3.56966 1.32921,-5.41179 -0.69037,-1.33502 -2.87747,-3.20985 -3.74451,-3.20985 -0.38685,0 -1.69101,0.51594 -2.89814,1.14653 l -2.1948,1.14653 1.76387,0.0986 c 3.04274,0.17012 2.94855,0.58449 -0.17637,0.77597 -2.8158,0.17254 -3.00577,0.23424 -3.11589,1.01201 -0.14121,0.99755 0.85511,2.1489 3.28755,3.79911 1.98906,1.3494 4.36158,1.6147 5.74908,0.64287 z m -8.03744,-3.68275 c 0.71038,-0.45908 7.40836,-0.45908 7.40836,0 0,0.2146 -1.5545,0.35066 -3.96875,0.34738 -2.69274,-0.004 -3.79862,-0.11535 -3.43961,-0.34738 z m -6.10319,-5.05907 c -0.25593,-0.66694 0.14589,-1.18943 1.2324,-1.60253 0.517,-0.19656 1.86036,-1.58761 3.00233,-3.10887 1.31046,-1.74575 2.3531,-2.79439 2.84951,-2.86587 0.43058,-0.062 0.78285,0.0571 0.78285,0.26458 0,0.20752 0.67469,0.38847 1.49932,0.40211 2.8689,0.0474 3.07398,0.62966 0.23106,0.65597 -2.16469,0.02 -2.79596,0.15366 -3.2865,0.69568 -0.59169,0.65381 -0.51903,0.6769 2.85575,0.90743 4.78084,0.32659 4.85617,0.47775 0.25437,0.5105 -3.3234,0.0237 -4.00229,0.12533 -4.49871,0.67384 -0.82396,0.91047 -0.43029,1.1179 2.12157,1.1179 1.25431,0 2.23424,0.15473 2.23424,0.35277 0,0.20707 -1.21854,0.35278 -2.95007,0.35278 -2.74678,0 -3.04189,0.073 -4.28186,1.05834 -1.48969,1.18385 -1.78427,1.26813 -2.04626,0.58537 z m 15.62825,-18.203352 c 0,-0.94992 0.66738,-1.268537 1.31032,-0.625581 0.64296,0.642954 0.32435,1.31032 -0.62558,1.31032 -0.4426,0 -0.68474,-0.242128 -0.68474,-0.684739 z"
       style="fill:#000000;stroke-width:0.0933392"
       id="path15094" />
    <path
       id="path1337"
       style="fill:#bdde91;fill-opacity:1;stroke:#020205;stroke-width:1.1966;stroke-linecap:round;stroke-miterlimit:4;stroke-dasharray:none;stroke-opacity:1"
       sodipodi:type="inkscape:offset"
       inkscape:radius="6.3969011"
       inkscape:original="M 24.796875 69.451172 L 24.796875 126.50391 L 82.75 126.50391 L 82.75 69.451172 L 24.796875 69.451172 z "
       d="m 24.796875,63.054688 a 6.3975408,6.3975408 0 0 0 -6.396484,6.396484 v 57.052738 a 6.3975408,6.3975408 0 0 0 6.396484,6.39648 H 82.75 a 6.3975408,6.3975408 0 0 0 6.396484,-6.39648 V 69.451172 A 6.3975408,6.3975408 0 0 0 82.75,63.054688 Z"
       transform="matrix(0.83569917,0,0,0.83569917,9.971268,82.447629)" />
    <path
       id="rect1153"
       style="fill:#a0a7ce;fill-opacity:1;stroke:#110f2c;stroke-width:1.1966;stroke-linecap:round;stroke-miterlimit:4;stroke-dasharray:none;stroke-opacity:1"
       sodipodi:type="inkscape:offset"
       inkscape:radius="6.3969011"
       inkscape:original="M 24.796875 69.451172 L 24.796875 126.50391 L 82.75 126.50391 L 82.75 69.451172 L 24.796875 69.451172 z "
       d="m 24.796875,63.054688 a 6.3975408,6.3975408 0 0 0 -6.396484,6.396484 v 57.052738 a 6.3975408,6.3975408 0 0 0 6.396484,6.39648 H 82.75 a 6.3975408,6.3975408 0 0 0 6.396484,-6.39648 V 69.451172 A 6.3975408,6.3975408 0 0 0 82.75,63.054688 Z"
       transform="matrix(0.83569917,0,0,0.83569917,9.971268,18.015654)" />
    <path
       id="path1335"
       style="fill:#ffc7a6;fill-opacity:1;stroke:#000000;stroke-width:1.1966;stroke-linecap:round;stroke-miterlimit:4;stroke-dasharray:none;stroke-opacity:1"
       sodipodi:type="inkscape:offset"
       inkscape:radius="6.3969011"
       inkscape:original="M 24.796875 69.451172 L 24.796875 126.50391 L 82.75 126.50391 L 82.75 69.451172 L 24.796875 69.451172 z "
       d="m 24.796875,63.054688 a 6.3975408,6.3975408 0 0 0 -6.396484,6.396484 v 57.052738 a 6.3975408,6.3975408 0 0 0 6.396484,6.39648 H 82.75 a 6.3975408,6.3975408 0 0 0 6.396484,-6.39648 V 69.451172 A 6.3975408,6.3975408 0 0 0 82.75,63.054688 Z"
       transform="matrix(0.83569917,0,0,0.83569917,74.529606,18.015654)" />
    <path
       d="m 48.214055,115.03994 c -1.335176,-1.75052 -1.997372,-3.63898 -1.98418,-5.65854 0.01881,-2.87919 0.839245,-4.45499 3.725354,-7.15525 1.320867,-1.23582 2.392888,-2.361681 2.382267,-2.501924 -0.01058,-0.140251 -0.863072,-0.951544 -1.894323,-1.802873 -2.32364,-1.918228 -3.426388,-3.413698 -4.018073,-5.449027 -0.7564,-2.601914 -0.08873,-5.557275 1.745815,-7.727697 0.760139,-0.89931 1.600109,-1.239963 1.600109,-0.648933 0,0.156656 -0.440611,0.862051 -0.979128,1.567545 -1.299254,1.702113 -1.693432,3.007732 -1.556642,5.155954 0.183994,2.889646 0.951168,3.86617 7.300492,9.292715 3.068124,2.62222 5.578403,4.9402 5.578403,5.15106 0,0.51597 -0.705794,0.48676 -1.149236,-0.0476 -0.283719,-0.34186 -1.115357,-0.43097 -4.022331,-0.43097 -2.906966,0 -3.738611,0.0891 -4.022322,0.43097 -0.196724,0.23703 -0.535774,0.43097 -0.753454,0.43097 -0.88718,0 -0.280282,-0.90846 1.744538,-2.61137 1.987941,-1.67192 2.38137,-2.2729 1.487937,-2.2729 -0.740023,0 -4.723,4.01612 -5.470354,5.51587 -1.294896,2.59851 -0.89503,5.45894 1.135221,8.12073 0.697134,0.91399 0.752409,1.5908 0.129916,1.5908 -0.140651,0 -0.581652,-0.42731 -0.980009,-0.94957 z m 8.021419,-12.12951 c -0.63208,-0.54479 -1.233969,-0.99245 -1.337531,-0.9948 -0.103569,-0.002 -0.729923,0.44824 -1.391899,1.00131 l -1.203609,1.00558 2.541137,-0.0108 2.541147,-0.0108 -1.149245,-0.99051 z m 4.165986,12.67699 c 0,-0.22115 0.440878,-1.05723 0.979732,-1.85796 1.85624,-2.75838 1.911499,-5.65249 0.160072,-8.38405 -0.481354,-0.75073 -2.819905,-3.01191 -5.497106,-5.31522 -5.960138,-5.127789 -6.560447,-5.701455 -6.560447,-6.269243 0,-0.417589 0.612755,-0.468867 5.602526,-0.468867 4.670494,0 5.602533,0.06845 5.602533,0.411463 0,0.226307 -1.034313,1.349949 -2.298472,2.496983 -1.264158,1.147035 -2.298471,2.19012 -2.298471,2.317976 0,0.602272 0.955867,0.07745 2.935552,-1.61168 4.268098,-3.641739 4.858251,-7.53833 1.757436,-11.603705 -0.569825,-0.747085 -0.658939,-1.042175 -0.392884,-1.301063 0.263905,-0.256796 0.541605,-0.100469 1.191505,0.670746 1.491829,1.770294 2.098507,3.380494 2.110879,5.602533 0.01816,3.265202 -1.108477,5.103843 -5.146508,8.398764 l -1.135384,0.926443 2.444507,2.37648 c 3.162034,3.07401 3.850374,4.42576 3.843614,7.54803 -0.0057,2.46441 -0.456513,3.70846 -2.018002,5.56417 -0.811627,0.96457 -1.281082,1.14713 -1.281082,0.4982 z m -4.309633,-18.703972 0.674777,-0.718276 -1.845769,0.0091 -1.84576,0.0091 0.806123,0.709195 c 1.011989,0.890308 1.367069,0.88885 2.210629,-0.009 z m 2.442125,-2.154823 c 0.517606,-0.571952 0.501824,-0.574617 -3.403183,-0.574617 -2.157765,0 -3.923207,0.103431 -3.923207,0.229848 0,0.708548 0.859506,0.919386 3.747953,0.919386 2.693531,0 3.120457,-0.06856 3.578437,-0.574617 z M 49.555536,113.3319 c 0.08997,-0.26989 1.428565,-0.35914 5.387046,-0.35914 3.958487,0 5.297085,0.0893 5.387053,0.35914 0.09299,0.27898 -1.109337,0.35913 -5.387053,0.35913 -4.277709,0 -5.480038,-0.0801 -5.387046,-0.35913 z m -0.574613,-2.29848 c 0.172956,-0.51887 11.750368,-0.51887 11.923327,0 0.09326,0.27977 -1.224252,0.35914 -5.961668,0.35914 -4.737407,0 -6.05492,-0.0793 -5.961659,-0.35914 z m -0.359144,-2.3703 c 0,-0.37002 0.893849,-0.43096 6.320803,-0.43096 5.426961,0 6.320812,0.0609 6.320812,0.43096 0,0.37002 -0.893851,0.43097 -6.320812,0.43097 -5.426954,0 -6.320803,-0.0609 -6.320803,-0.43097 z m 0.13534,-1.59366 c -0.106086,-0.17164 -0.104742,-0.40044 0.0033,-0.50845 0.107732,-0.108 2.932709,-0.19636 6.277752,-0.19636 5.214576,0 6.081885,0.0615 6.081885,0.43096 0,0.36708 -0.902076,0.44245 -6.084874,0.50845 -4.147392,0.0528 -6.14628,-0.0219 -6.277743,-0.2346 z m 2.091308,-15.139674 c -1.459164,-0.07563 -1.939337,-0.203962 -1.939337,-0.518344 0,-0.351964 0.917207,-0.417143 5.818012,-0.413439 5.697886,0.0043 7.224515,0.212728 6.248979,0.853132 -0.404302,0.265404 -5.726675,0.30674 -10.127654,0.07866 z m -2.155044,-2.444557 c 0.08884,-0.267048 1.549979,-0.380037 5.6983,-0.440647 5.651318,-0.08257 6.871711,0.0094 6.871711,0.517952 0,0.17573 -2.388613,0.281832 -6.344748,0.281832 -4.947984,0 -6.318441,-0.07906 -6.225263,-0.359137 z m 0.981864,-1.843567 c -0.562814,-0.562819 0.282376,-0.670388 5.267335,-0.670388 4.660795,0 5.458878,0.063 5.458878,0.430967 0,0.367408 -0.776794,0.430962 -5.267334,0.430962 -2.897038,0 -5.353533,-0.08619 -5.458879,-0.191541 z"
       style="fill:#000000;stroke-width:0.0760173"
       id="path14924" />
    <circle
       style="fill:#fdfdfd;fill-opacity:1;stroke:#030309;stroke-width:1;stroke-linecap:round;stroke-miterlimit:4;stroke-dasharray:none;stroke-opacity:1"
       id="path1363"
       cx="87.167831"
       cy="132.3589"
       r="27.901426" />
    <g
       id="g8311"
       transform="rotate(-15,87.167835,132.15204)">
      <path
         style="fill:none;fill-opacity:1;stroke:#030309;stroke-width:2;stroke-linecap:round;stroke-miterlimit:4;stroke-dasharray:none;stroke-opacity:1"
         id="circle7262"
         sodipodi:type="arc"
         sodipodi:cx="87.167831"
         sodipodi:cy="132.3589"
         sodipodi:rx="22.191185"
         sodipodi:ry="22.191185"
         sodipodi:start="0.17453293"
         sodipodi:end="2.9670597"
         sodipodi:arc-type="arc"
         d="M 109.02188,136.21236 A 22.191185,22.191185 0 0 1 87.167831,154.55009 22.191185,22.191185 0 0 1 65.31378,136.21236"
         sodipodi:open="true" />
      <path
         style="fill:none;fill-opacity:1;stroke:#030309;stroke-width:2;stroke-linecap:round;stroke-miterlimit:4;stroke-dasharray:none;stroke-opacity:1"
         id="path8307"
         sodipodi:type="arc"
         sodipodi:cx="-87.167831"
         sodipodi:cy="-131.94519"
         sodipodi:rx="22.191185"
         sodipodi:ry="22.191185"
         sodipodi:start="0.17453293"
         sodipodi:end="2.9670597"
         sodipodi:arc-type="arc"
         d="m -65.31378,-128.09173 a 22.191185,22.191185 0 0 1 -21.854051,18.33772 22.191185,22.191185 0 0 1 -21.854049,-18.33772"
         sodipodi:open="true"
         transform="scale(-1)" />
    </g>
    <path
       style="fill:none;stroke:#000000;stroke-width:2;stroke-linecap:round;stroke-linejoin:round;stroke-miterlimit:4;stroke-dasharray:none;stroke-opacity:1;paint-order:normal"
       d="m 103.20882,121.30554 c 1.33987,0.42316 2.67906,0.84623 4.01931,1.26889 0.42317,-1.33988 0.84685,-2.67938 1.26984,-4.01901"
       id="path10245"
       sodipodi:nodetypes="ccc"
       inkscape:transform-center-x="1.4294273"
       inkscape:transform-center-y="-1.8415314" />
    <path
       style="fill:none;stroke:#000000;stroke-width:2;stroke-linecap:round;stroke-linejoin:round;stroke-miterlimit:4;stroke-dasharray:none;stroke-opacity:1;paint-order:normal"
       d="m 71.163557,142.88104 c -1.351664,-0.38386 -2.702637,-0.76762 -4.054668,-1.15093 -0.383846,1.35166 -0.768207,2.70297 -1.151881,4.0544"
       id="path10245-7"
       sodipodi:nodetypes="ccc"
       inkscape:transform-center-x="-1.4208351"
       inkscape:transform-center-y="2.1192278" />
    <text
       xml:space="preserve"
       style="font-size:6.35px;line-height:1.25;font-family:sans-serif;letter-spacing:0px;word-spacing:0px;stroke-width:0.264583"
       x="72.109833"
       y="134.33165"
       id="text12743"><tspan
         sodipodi:role="line"
         id="tspan12741"
         style="font-size:6.35px;stroke-width:0.264583"
         x="72.109833"
         y="134.33165">Metadata</tspan></text>
    <text
       xml:space="preserve"
       style="font-size:6.35px;line-height:1.25;font-family:sans-serif;letter-spacing:0px;word-spacing:0px;stroke-width:0.264583"
       x="39.143204"
       y="78.610992"
       id="text12743-5"><tspan
         sodipodi:role="line"
         id="tspan12741-3"
         style="font-size:6.35px;stroke-width:0.264583"
         x="39.143204"
         y="78.610992">Genomics</tspan></text>
    <text
       xml:space="preserve"
       style="font-size:6.35px;line-height:1.25;font-family:sans-serif;letter-spacing:0px;word-spacing:0px;stroke-width:0.264583"
       x="94.731552"
       y="78.098106"
       id="text12743-5-5"><tspan
         sodipodi:role="line"
         id="tspan12741-3-6"
         style="font-size:6.35px;stroke-width:0.264583"
         x="94.731552"
         y="78.098106">Transcriptomics</tspan></text>
    <text
       xml:space="preserve"
       style="font-size:6.35px;line-height:1.25;font-family:sans-serif;letter-spacing:0px;word-spacing:0px;stroke-width:0.264583"
       x="37.200687"
       y="191.13109"
       id="text12743-5-5-2"><tspan
         sodipodi:role="line"
         id="tspan12741-3-6-9"
         style="font-size:6.35px;stroke-width:0.264583"
         x="37.200687"
         y="191.13109">Proteomics</tspan></text>
    <text
       xml:space="preserve"
       style="font-size:6.35px;line-height:1.25;font-family:sans-serif;letter-spacing:0px;word-spacing:0px;stroke-width:0.264583"
       x="97.270927"
       y="191.13109"
       id="text12743-5-5-1"><tspan
         sodipodi:role="line"
         id="tspan12741-3-6-2"
         style="font-size:6.35px;stroke-width:0.264583"
         x="97.270927"
         y="191.13109">Metabolomics</tspan></text>
    <path
       d="m 114.13639,176.18545 c -0.61487,-0.92911 -1.28212,-1.48354 -1.94498,-1.61611 -1.01881,-0.20376 -3.53629,-2.15223 -3.53629,-2.73699 0,-0.5738 0.93723,-0.32922 1.61708,0.42199 1.56967,1.73447 2.46613,1.61034 3.5533,-0.49199 0.49056,-0.94867 0.48215,-1.14309 -0.096,-2.21663 -0.86545,-1.607 -0.29644,-1.99114 0.86177,-0.58181 0.82267,1.00104 1.15565,1.14705 2.60962,1.14427 1.49783,-0.003 1.72272,-0.11162 2.22022,-1.07369 0.52258,-1.01053 0.50922,-1.13405 -0.23852,-2.20486 -0.43566,-0.62389 -0.95105,-1.243 -1.14528,-1.3758 -0.51461,-0.35184 -2.43834,0.072 -2.89472,0.63782 -0.3868,0.47954 -1.19581,0.67303 -1.19581,0.28599 0,-0.10977 0.15274,-0.48501 0.33946,-0.83387 0.2573,-0.4808 0.0885,-1.03009 -0.69779,-2.26986 -0.57049,-0.89957 -1.20594,-1.63558 -1.41208,-1.63558 -0.20616,0 -0.8319,0.33792 -1.39052,0.75092 -1.27926,0.9458 -2.7146,0.67346 -3.20162,-0.60748 -0.39613,-1.04194 0.0196,-2.05022 1.07895,-2.61721 0.758,-0.40567 1.65229,-0.0886 2.44538,0.86701 0.72954,0.87903 1.35221,0.64647 2.36443,-0.88308 l 0.94731,-1.43152 -0.76795,-1.5807 c -0.7284,-1.49924 -0.7384,-1.63908 -0.19423,-2.71362 1.06047,-2.09409 1.48862,-2.36765 3.70562,-2.36765 1.97128,0 2.0833,0.0501 2.94391,1.31661 1.11339,1.63848 1.1116,1.89177 -0.0271,3.83475 l -0.92173,1.57283 0.92673,1.4004 c 0.8886,1.34276 1.00465,1.40041 2.81882,1.40041 2.15278,0 2.3192,0.14172 3.2394,2.7584 l 0.65987,1.87645 -0.8722,1.65132 -0.8722,1.65133 -2.16863,0.10409 c -2.00896,0.0964 -2.19927,0.17802 -2.58448,1.10798 -0.35213,0.85008 -0.30361,1.22386 0.31655,2.4395 0.40283,0.78958 0.73239,1.68005 0.73239,1.97882 0,1.11964 -0.91069,0.45301 -1.71087,-1.25234 l -0.82894,-1.76665 -1.76723,0.10541 c -1.60579,0.0958 -1.83306,0.21925 -2.48785,1.35151 l -0.72065,1.24609 0.84735,1.34015 0.84736,1.34016 3.35497,-0.14724 c 2.71065,-0.11897 3.77915,-0.3376 5.56358,-1.13841 2.20411,-0.98914 3.35227,-0.95636 2.01702,0.0576 -1.65568,1.25727 -3.68713,1.81586 -7.50332,2.0632 l -3.89421,0.25239 z m 10.97213,-9.7389 c 0.52369,-1.09815 0.52107,-1.32727 -0.034,-2.99861 l -0.60108,-1.80961 h -1.72958 c -1.71415,0 -1.73733,0.0153 -2.59712,1.71198 l -0.86752,1.71196 0.87429,1.28665 c 0.80936,1.19106 1.00481,1.28664 2.63118,1.28664 1.64766,0 1.79213,-0.0739 2.32389,-1.18901 z m -5.1645,-1.91112 c 0,-0.48709 2.03856,-2.72978 2.27298,-2.50058 0.34502,0.33736 -1.21767,2.77848 -1.77866,2.77848 -0.27189,0 -0.49432,-0.12506 -0.49432,-0.2779 z m -0.69824,-1.85313 0.72723,-1.42547 -0.78501,-1.39675 c -0.73631,-1.31006 -0.88498,-1.39647 -2.39575,-1.39238 -1.44891,0.004 -1.69048,0.12747 -2.40448,1.22977 -0.43657,0.67398 -0.79375,1.31017 -0.79375,1.41376 0,0.10359 0.39886,0.82019 0.88635,1.59245 0.81759,1.29512 1.0087,1.4041 2.46229,1.4041 1.48603,0 1.61737,-0.0813 2.30312,-1.42548 z m -3.71303,0.71743 c -0.12076,-0.1954 0.0172,-0.44607 0.30631,-0.55706 0.78713,-0.30206 2.0896,-0.0298 2.25462,0.47136 0.17809,0.54073 -2.22991,0.62132 -2.56093,0.0857 z m -5.32672,-1.96962 c 0.28895,-0.75303 -0.035,-1.20289 -0.86617,-1.20289 -0.42881,0 -0.68474,0.24174 -0.68474,0.64676 0,1.17479 1.15461,1.58881 1.55091,0.55613 z m 8.1335,-4.5877 c 0.30943,-0.30942 0.80338,-1.02822 1.09768,-1.59732 0.48649,-0.94079 0.47884,-1.12994 -0.0843,-2.08325 -0.54888,-0.92916 -0.81044,-1.0485 -2.29814,-1.0485 -1.5022,0 -1.73535,0.10945 -2.217,1.04081 -0.69787,1.34951 -0.67813,1.724 0.16349,3.10432 0.53377,0.87549 0.94451,1.14653 1.73736,1.14653 0.57107,0 1.29148,-0.25316 1.60091,-0.56259 z m -0.42399,16.1114 c -1.35644,-1.13567 -1.42801,-1.4377 -0.34066,-1.4377 0.51711,0 1.02479,0.37054 1.41672,1.03405 0.8219,1.39138 0.32591,1.57743 -1.07606,0.40365 z m 8.96643,-2.02566 c -0.52721,-0.52722 -0.16787,-0.82315 0.99955,-0.82315 1.38541,0 1.65481,0.51069 0.44095,0.83598 -1.01798,0.27282 -1.1561,0.27158 -1.4405,-0.0128 z m -18.02527,-1.73029 c -0.74342,-0.74342 -0.70096,-2.02583 0.0908,-2.74235 0.84638,-0.76595 1.9255,-0.741 2.65157,0.0613 1.17351,1.29672 0.36074,3.23541 -1.35643,3.23541 -0.45736,0 -1.08101,-0.24946 -1.38592,-0.55436 z m 2.20168,-1.30284 c 0.14042,-0.72904 -0.87799,-1.22029 -1.41549,-0.6828 -0.5375,0.5375 -0.0462,1.5559 0.68281,1.4155 0.3379,-0.0651 0.66762,-0.39479 0.73268,-0.7327 z m 16.29397,-2.37613 c 0,-1.04116 0.45236,-1.40063 0.88389,-0.7024 0.28393,0.45941 -0.12618,1.76073 -0.55488,1.76073 -0.18098,0 -0.32901,-0.47625 -0.32901,-1.05833 z m 3.0824,-1.76362 c -0.2567,-3.74511 -1.57676,-6.59756 -4.27014,-9.22721 -2.08105,-2.03182 -2.316,-2.41472 -1.48161,-2.41472 0.91646,0 3.99444,3.37748 5.13246,5.6319 1.21801,2.41286 1.939,5.87579 1.60015,7.68546 -0.36817,1.9662 -0.77941,1.26375 -0.98086,-1.67543 z m -10.25555,-5.52712 c -0.40592,-0.40592 -0.25691,-0.82315 0.29398,-0.82315 0.29104,0 0.52917,0.23813 0.52917,0.52917 0,0.55089 -0.41725,0.6999 -0.82315,0.29398 z m 1.95202,-1.59926 c -0.72657,-0.72657 -0.48863,-1.6635 0.48445,-1.90773 1.15771,-0.29057 1.71387,0.26557 1.42328,1.42329 -0.24421,0.97309 -1.18116,1.21101 -1.90773,0.48444 z"
       style="fill:#000000;stroke-width:0.0933392"
       id="path14223" />
    <path
       d="m 71.197561,155.60979 m -31.5228,21.13362 c 0.0834,-0.58117 0.322659,-0.77186 0.89346,-0.71202 1.017299,0.10665 2.574071,-1.89654 2.55683,-3.29002 -0.007,-0.56377 -0.39402,-1.49156 -0.860099,-2.06176 -0.778981,-0.95301 -0.924991,-1.00137 -1.808332,-0.59889 -0.7986,0.36386 -1.050438,0.34831 -1.49085,-0.0921 -0.441428,-0.44142 -0.452319,-0.62343 -0.0652,-1.08982 0.255569,-0.30795 0.789419,-0.51435 1.186339,-0.45868 0.552011,0.0774 0.773732,-0.1476 0.94307,-0.95711 0.121772,-0.58209 0.43026,-1.44722 0.685551,-1.92254 0.41464,-0.77201 0.383551,-0.91771 -0.29152,-1.36594 -0.845849,-0.56163 -1.005819,-1.65532 -0.28271,-1.93281 0.657651,-0.25236 1.18826,0.14282 1.58188,1.17813 0.272129,0.71573 0.738399,0.97084 2.48113,1.35746 2.43813,0.5409 2.951819,0.43219 3.755811,-0.79486 0.520089,-0.79376 0.522949,-1.03709 0.0316,-2.69173 -0.474031,-1.59623 -0.478222,-1.99902 -0.0342,-3.28786 0.494598,-1.4356 0.485039,-1.48552 -0.423191,-2.20971 -0.61435,-0.48987 -0.85307,-0.93936 -0.704509,-1.32651 0.26044,-0.6787 1.65534,-0.79996 1.663359,-0.1446 0.01389,1.13385 0.573979,1.41927 1.915959,0.97638 1.858881,-0.61349 3.410151,-0.19427 5.239441,1.41594 2.113161,1.86008 3.497659,2.15174 4.312319,0.90842 0.331362,-0.50572 0.892352,-0.91949 1.24664,-0.91949 0.870122,0 0.990701,-0.32385 0.623922,-1.6757 -0.208359,-0.76796 -0.526441,-1.14653 -0.96334,-1.14653 -1.569551,0 -1.98841,-2.54368 -0.454671,-2.7611 1.12775,-0.15987 1.851121,0.54938 1.761379,1.72702 -0.0416,0.54592 0.20084,1.29807 0.53875,1.67146 0.480521,0.53097 0.562851,1.01587 0.37787,2.22561 -0.393689,2.57464 -0.679677,2.88641 -2.409798,2.62696 -1.127602,-0.16909 -1.614012,-0.09 -1.952141,0.31742 -0.69527,0.83776 -1.68797,0.64471 -2.198349,-0.42751 -0.253981,-0.53357 -0.818272,-1.12684 -1.253972,-1.31837 -0.4357,-0.19153 -0.792178,-0.45801 -0.792178,-0.59216 0,-0.13416 -0.24947,-0.4934 -0.554371,-0.79829 -0.91826,-0.91826 -2.22654,-0.66624 -3.582979,0.6902 -1.12241,1.12241 -1.225572,1.38632 -1.050902,2.68855 0.238872,1.78094 0.718532,2.34667 1.464641,1.72746 0.771491,-0.64028 1.67976,-0.18362 1.543489,0.77604 -0.086,0.60543 -0.344958,0.79532 -1.084688,0.79532 -0.714409,0 -1.1537,0.29855 -1.65885,1.12737 -1.17102,1.92133 -2.17241,2.35345 -4.82427,2.08176 -3.693692,-0.37843 -4.064781,0.33204 -1.979391,3.78966 l 1.325449,2.19764 0.95513,-0.5361 c 0.728401,-0.40884 1.052952,-0.43828 1.367221,-0.12401 0.684541,0.68454 0.0874,1.51785 -1.08757,1.51785 -0.81753,0 -1.448411,0.38936 -2.63145,1.62405 -0.855869,0.89323 -1.708269,1.53001 -1.89424,1.41508 -0.18597,-0.11493 -0.420679,0.10674 -0.521591,0.49262 -0.111789,0.4275 -0.481589,0.70158 -0.946589,0.70158 -0.589931,0 -0.73727,-0.18013 -0.64924,-0.79375 z m 17.82086,-23.31532 c -0.340231,-0.88661 0.306749,-1.38038 1.473041,-1.12422 1.266129,0.27809 1.343469,0.45447 0.48505,1.1061 -0.80118,0.60818 -1.72837,0.61676 -1.958091,0.0181 z"
       style="fill:#000000;stroke-width:0.0933392"
       id="path14381" />
    <path
       d="m 124.00873,112.91522 c -0.68999,-0.57648 -2.07247,-1.63179 -3.07215,-2.34514 -1.75122,-1.24967 -1.85734,-1.28511 -2.90631,-0.97082 -1.46446,0.43875 -2.49987,1.29889 -3.18849,2.64865 -0.94646,1.85523 -1.70492,1.3871 -0.84921,-0.52417 0.52152,-1.16488 2.54349,-2.94559 3.34465,-2.94559 0.56229,0 0.50667,-0.1 -0.76028,-1.36693 -0.90922,-0.90924 -1.14754,-1.35975 -1.14754,-2.1694 0,-1.5401 0.90457,-2.34366 5.02018,-4.45955 2.03443,-1.045934 3.82173,-2.107643 3.97181,-2.359351 0.61733,-1.035395 -0.0399,-1.920008 -2.68979,-3.620836 -1.42185,-0.91258 -3.18513,-2.046536 -3.91844,-2.519905 -1.99395,-1.287157 -3.01258,-2.708604 -3.17849,-4.435437 -0.11114,-1.156437 -0.0527,-1.445729 0.29204,-1.445729 0.24453,0 0.50187,0.354518 0.59489,0.819557 0.14508,0.725499 0.31842,0.840732 1.51033,1.0041 0.74052,0.101498 2.45802,0.206541 3.81663,0.233426 l 2.47022,0.04887 -3.15576,0.201508 c -1.73565,0.110825 -3.38622,0.217928 -3.66789,0.238005 -0.42106,0.03001 -0.45753,0.13854 -0.20507,0.610267 0.27535,0.514492 0.60069,0.573776 3.14891,0.573776 1.5851,0 2.92026,0.126869 3.01915,0.286888 0.11297,0.18278 -0.71988,0.286888 -2.2951,0.286888 -1.35982,0 -2.40623,0.107029 -2.32539,0.237852 0.0808,0.130822 0.93463,0.724001 1.89728,1.318183 1.27328,0.785913 1.94003,1.032692 2.44664,0.905544 1.05691,-0.265272 2.64017,-1.795631 3.00671,-2.906248 0.3267,-0.989902 1.14283,-1.381248 1.14283,-0.548005 0,0.830192 -1.12968,2.657492 -2.17626,3.520165 l -1.04536,0.861681 1.32391,1.268545 c 1.09207,1.046388 1.32393,1.448728 1.32393,2.297439 0,0.866097 -0.21562,1.220654 -1.36271,2.240848 -0.7671,0.682239 -1.21226,1.265509 -1.0185,1.334479 0.79996,0.28476 1.86393,1.36543 2.42273,2.46082 0.46783,0.917 0.56251,1.48548 0.43156,2.59114 -0.20977,1.77105 -0.73582,2.59038 -1.95701,3.04795 -0.52504,0.19671 -1.19864,0.44919 -1.49692,0.56104 -0.4586,0.17197 -0.24632,0.43889 1.37511,1.72909 1.78762,1.42246 2.14776,1.99315 1.4125,2.23824 -0.16546,0.0551 -0.86535,-0.37138 -1.55534,-0.94785 z m -0.035,-4.29793 c 1.38005,-0.96661 1.85562,-2.90293 1.08094,-4.40099 -0.56143,-1.08566 -2.34002,-2.61031 -3.04512,-2.61031 -0.31458,0 -1.37516,0.41957 -2.35683,0.93238 l -1.78485,0.93238 1.43442,0.0802 c 2.47441,0.13834 2.39781,0.47531 -0.14343,0.63103 -2.28988,0.14031 -2.44436,0.19049 -2.53391,0.82299 -0.11483,0.81123 0.69539,1.74753 2.67351,3.08952 1.61754,1.09736 3.54692,1.3131 4.67527,0.52279 z m -6.53621,-2.99489 c 0.57769,-0.37334 6.02463,-0.37334 6.02463,0 0,0.17451 -1.26416,0.28516 -3.22747,0.28249 -2.1898,-0.003 -3.08912,-0.0938 -2.79716,-0.28249 z m -4.96326,-4.11415 c -0.20812,-0.54237 0.11864,-0.96727 1.00222,-1.30321 0.42043,-0.15984 1.51289,-1.291074 2.44156,-2.528195 1.06569,-1.419681 1.9136,-2.272458 2.31729,-2.330587 0.35015,-0.05042 0.63663,0.04643 0.63663,0.215163 0,0.16876 0.54866,0.315911 1.21927,0.327003 2.33305,0.03855 2.49982,0.512054 0.1879,0.533449 -1.76037,0.01626 -2.27373,0.124959 -2.67264,0.565741 -0.48118,0.531694 -0.4221,0.55047 2.32235,0.737943 3.88788,0.26559 3.94914,0.388516 0.20686,0.41515 -2.70266,0.01928 -3.25475,0.101921 -3.65844,0.547981 -0.67007,0.740413 -0.34992,0.9091 1.72529,0.9091 1.02004,0 1.81694,0.12583 1.81694,0.28688 0,0.168392 -0.99094,0.286882 -2.39906,0.286882 -2.23374,0 -2.47373,0.0594 -3.4821,0.86067 -1.21144,0.96273 -1.45101,1.03127 -1.66407,0.47603 z m 12.70923,-14.803346 c 0,-0.772495 0.54273,-1.031601 1.06558,-0.508736 0.52288,0.522864 0.26378,1.065581 -0.50874,1.065581 -0.35992,0 -0.55684,-0.196904 -0.55684,-0.556845 z"
       style="fill:#000000;stroke-width:0.0759054"
       id="path15376" />
  </g>
</svg>
